<?xml version="1.0" encoding="UTF-8" standalone="no"?><!DOCTYPE svg PUBLIC "-//W3C//DTD SVG 1.1//EN" "http://www.w3.org/Graphics/SVG/1.1/DTD/svg11.dtd"><svg width="100%" height="100%" viewBox="0 0 105 105" version="1.1" xmlns="http://www.w3.org/2000/svg" xmlns:xlink="http://www.w3.org/1999/xlink" xml:space="preserve" xmlns:serif="http://www.serif.com/" style="fill-rule:evenodd;clip-rule:evenodd;stroke-linejoin:round;stroke-miterlimit:1.41421;"><g><path d="M104.721,52.361c0,28.916 -23.442,52.359 -52.359,52.359c-28.919,0 -52.362,-23.443 -52.362,-52.359c0,-28.919 23.443,-52.361 52.362,-52.361c28.917,0 52.359,23.442 52.359,52.361" style="fill:#495057;fill-rule:nonzero;"/><path d="M74.156,34.138l-21.795,-10.153l-21.795,10.153l0,18.668c0,8.135 2.992,15.567 7.943,21.256l3.251,3.249l25.304,25.302c18.262,-5.335 32.39,-20.344 36.458,-39.111l-29.366,-29.364Z" style="fill:#343b43;fill-rule:nonzero;"/><path d="M52.362,23.984l-21.799,10.153l0,18.669c0,14.183 9.112,26.232 21.799,30.633c12.688,-4.401 21.796,-16.45 21.796,-30.633l0,-18.669l-21.796,-10.153Z" style="fill:#fff;fill-rule:nonzero;"/><path d="M52.362,28.574l0,50.42c10.608,-4.3 17.638,-14.647 17.638,-26.188l0,-16.017l-17.638,-8.215Z" style="fill:#70c9e9;fill-rule:nonzero;"/><path d="M34.725,36.79l0,16.016c0,11.54 7.029,21.887 17.638,26.188l0,-50.419l-17.638,8.215Z" style="fill:#8fdef6;fill-rule:nonzero;"/><path d="M63.363,53.19c0,6.073 -4.923,11.001 -10.999,11.001c-6.076,0 -10.998,-4.928 -10.998,-11.001c0,-6.074 4.922,-11 10.998,-11c6.076,0 10.999,4.926 10.999,11" style="fill:#fff;fill-rule:nonzero;"/><path d="M50.348,58.842l-4.845,-4.845l1.614,-1.614l3.231,3.229l7.263,-7.265l1.614,1.614l-8.877,8.881Z" style="fill:#343b43;fill-rule:nonzero;"/></g></svg>