<?xml version="1.0" encoding="UTF-8" standalone="no"?><!DOCTYPE svg PUBLIC "-//W3C//DTD SVG 1.1//EN" "http://www.w3.org/Graphics/SVG/1.1/DTD/svg11.dtd"><svg width="100%" height="100%" viewBox="0 0 105 105" version="1.1" xmlns="http://www.w3.org/2000/svg" xmlns:xlink="http://www.w3.org/1999/xlink" xml:space="preserve" xmlns:serif="http://www.serif.com/" style="fill-rule:evenodd;clip-rule:evenodd;stroke-linejoin:round;stroke-miterlimit:1.41421;"><g><path d="M0,52.442c0,28.963 23.479,52.443 52.443,52.443c28.963,0 52.442,-23.48 52.442,-52.443c0,-28.962 -23.479,-52.442 -52.442,-52.442c-28.964,0 -52.443,23.48 -52.443,52.442" style="fill:#6dbec4;fill-rule:nonzero;"/><path d="M35.355,38.039c0,0 6.387,2.017 9.749,1.681c3.362,-0.336 3.783,-1.114 3.783,-1.849c0,-2.038 -2.774,-2.354 -2.774,-5.043c0,0 0.02,-4.559 4.685,-4.559c4.664,0 4.601,4.412 4.601,4.664c0,2.584 -2.773,3.215 -2.773,4.791c0,0 -0.253,2.033 5.106,2.033c5.357,0 9.013,-1.718 9.013,-1.718c0,0 -4.727,13.867 0,13.867c2.836,0 1.827,-3.089 6.051,-3.089c4.54,0 5.231,9.518 -0.945,9.518c-2.459,0 -2.585,-3.151 -5.106,-3.151c-1.324,0 -3.593,3.971 0.127,14.496c0,0 -3.72,1.324 -6.556,1.576c-2.836,0.252 -9.076,0.379 -6.933,-3.151c2.143,-3.53 3.781,-8.194 -2.396,-8.194c0,0 -4.854,0.252 -4.916,3.971c-0.063,3.718 2.458,3.215 2.395,5.169c-0.064,1.953 -2.458,2.68 -4.286,2.317c-1.828,-0.364 -8.825,-1.813 -8.825,-1.813c0,0 -2.143,-7.626 -2.017,-10.59c0.127,-2.962 2.27,-4.664 3.908,-4.601c1.638,0.063 1.89,3.215 4.412,2.963c2.522,-0.253 2.522,-2.71 2.522,-4.034c0,-1.324 -1.576,-4.476 -3.845,-4.476c-2.269,0 -3.152,2.396 -4.79,2.459c-1.64,0.062 -3.278,-0.694 -0.19,-13.237" style="fill:#fff;fill-rule:nonzero;"/><path d="M37.246,54.459c1.389,0 1.783,2.278 3.406,2.816c0.291,0.096 0.622,0.115 1.006,0.076c1.932,-0.194 2.384,-1.694 2.489,-2.975c0.033,-0.39 0.033,-0.769 0.033,-1.077c0,-0.642 -0.37,-1.712 -1.008,-2.644c-0.68,-0.994 -1.666,-1.836 -2.837,-1.836c-1.543,0 -2.444,1.105 -3.38,1.833c-0.439,0.344 -0.885,0.604 -1.411,0.624c-0.368,0.014 -0.736,0.035 -1.05,-0.159l3.295,3.342l-0.543,0Z" style="fill:#5d9ea6;fill-rule:nonzero;"/><path d="M53.784,29.178l-0.002,0c0.005,0.003 0.009,0.006 0.013,0.011l-0.011,-0.011Z" style="fill:#5d9ea6;fill-rule:nonzero;"/><path d="M57.731,39.758c2.363,0 4.393,-0.334 5.925,-0.708l-1.01,-1.011l-8.271,-8.271c1.046,1.305 1.024,3.011 1.024,3.165c0,2.585 -2.773,3.215 -2.773,4.791c0,0 -0.015,0.126 0.044,0.315c0.178,0.572 1.037,1.719 5.061,1.719" style="fill:#5d9ea6;fill-rule:nonzero;"/><path d="M98.261,69.554l-15.191,-15.19l-3.712,-3.712l-12.613,-12.613c0,0 -0.453,1.328 -0.937,3.161c-0.793,2.994 -1.671,7.336 -0.808,9.452c0.317,0.776 0.868,1.255 1.745,1.255c1.239,0 1.744,-0.591 2.273,-1.255c0.68,-0.855 1.4,-1.834 3.778,-1.834c0.252,0 0.49,0.034 0.717,0.088c0.926,0.225 1.65,0.878 2.133,1.746c0.123,0.223 0.23,0.462 0.322,0.709c0.342,0.922 0.455,1.987 0.31,3.003c-0.296,2.089 -1.681,3.971 -4.428,3.971c-2.458,0 -2.584,-3.152 -5.105,-3.152c-1.318,0 -3.573,3.941 0.082,14.371c0.016,0.043 0.028,0.084 0.044,0.126c0,0 -3.719,1.325 -6.555,1.577c-1.616,0.143 -4.334,0.245 -5.98,-0.346c-0.772,-0.277 -1.307,-0.707 -1.382,-1.357c0,-0.01 -0.003,-0.018 -0.005,-0.028c-0.035,-0.391 0.092,-0.86 0.434,-1.421c2.143,-3.53 3.781,-8.194 -2.397,-8.194c0,0 -3.878,0.204 -4.744,2.906c-0.102,0.32 -0.165,0.672 -0.171,1.066c-0.064,3.718 2.458,3.213 2.395,5.168c-0.006,0.179 -0.037,0.345 -0.08,0.503c-0.425,1.571 -2.546,2.144 -4.207,1.813c-1.828,-0.362 -8.824,-1.813 -8.824,-1.813l32.901,32.902c4.279,-1.351 8.32,-3.238 12.045,-5.579c8.358,-5.252 15.132,-12.793 19.435,-21.748c0.448,-0.931 0.866,-1.879 1.259,-2.841l-2.734,-2.734Z" style="fill:#5d9ea6;fill-rule:nonzero;"/></g></svg>