<?xml version="1.0" encoding="UTF-8" standalone="no"?><!DOCTYPE svg PUBLIC "-//W3C//DTD SVG 1.1//EN" "http://www.w3.org/Graphics/SVG/1.1/DTD/svg11.dtd"><svg width="100%" height="100%" viewBox="0 0 105 105" version="1.1" xmlns="http://www.w3.org/2000/svg" xmlns:xlink="http://www.w3.org/1999/xlink" xml:space="preserve" xmlns:serif="http://www.serif.com/" style="fill-rule:evenodd;clip-rule:evenodd;stroke-linejoin:round;stroke-miterlimit:1.41421;"><g><path d="M52.442,104.885c-28.916,0 -52.442,-23.525 -52.442,-52.44c0,-28.92 23.526,-52.445 52.442,-52.445c28.919,0 52.444,23.525 52.444,52.445c0,28.915 -23.525,52.44 -52.444,52.44" style="fill:#60dce2;fill-rule:nonzero;"/><path d="M97.951,52.445c0,25.13 -20.374,45.51 -45.509,45.51c-25.133,0 -45.507,-20.38 -45.507,-45.51c0,-25.134 20.374,-45.509 45.507,-45.509c25.135,0 45.509,20.375 45.509,45.509" style="fill:#79e2e2;fill-rule:nonzero;"/><path d="M97.951,52.445c0,25.13 -20.374,45.51 -45.509,45.51c-25.133,0 -45.507,-20.38 -45.507,-45.51c0,-25.134 20.374,-45.509 45.507,-45.509c25.135,0 45.509,20.375 45.509,45.509" style="fill:#063c4c;fill-rule:nonzero;"/><path d="M65.038,82.472l-0.906,-17.644l-20.518,0l-0.907,17.644c-0.059,9.307 22.39,9.307 22.331,0" style="fill:#fff;fill-rule:nonzero;"/><path d="M52.442,97.955c12.186,0 23.245,-4.802 31.413,-12.6c-5.907,-2.615 -12.945,-4.069 -18.859,-4.464c-3.233,4.983 -19.007,4.983 -22.239,0c-6.346,0.272 -14.7,1.694 -21.566,4.616c8.152,7.709 19.148,12.448 31.251,12.448" style="fill:#60dce2;fill-rule:nonzero;"/><path d="M73.511,44.718c2.421,-14.784 -9.587,-20.522 -19.753,-20.522c-10.168,0 -20.647,4.7 -19.757,20.522c-1.159,-0.303 -2.504,1.012 -1.858,4.289c1.262,6.406 2.548,7.965 3.428,8.113c3.106,8.17 10.076,13.868 18.187,13.868c8.106,0 15.075,-5.698 18.182,-13.868c0.881,-0.148 2.167,-1.711 3.429,-8.113c0.643,-3.277 -0.7,-4.592 -1.858,-4.289" style="fill:#fff;fill-rule:nonzero;"/><path d="M75.125,31.297c-0.687,-7.099 -6.567,-10.738 -12.013,-13.421l-3.051,-2.804l0,1.344c-2.222,-1.053 -4.154,-2.017 -5.315,-3.098c-1.131,1.099 -3.216,2.077 -5.668,3.153c0.142,-0.471 0.236,-0.942 0.255,-1.399l-3.339,2.754c-0.919,0.411 -1.852,0.846 -2.78,1.312l0.586,-2.391c0,0 -2.296,2.013 -4.153,4.42c-3.642,2.377 -6.585,5.524 -7.028,10.13c-0.302,3.107 -0.246,10.472 1.602,17.378l1.553,0c-0.577,-6.306 -0.374,-14.959 3.105,-17.729c4.006,-3.188 10.299,-1.468 14.992,-1.485c4.693,0.017 10.99,-1.703 14.991,1.485c3.483,2.77 3.684,11.423 3.106,17.729l1.556,0c1.847,-6.906 1.901,-14.271 1.601,-17.378" style="fill:#ffd215;fill-rule:nonzero;"/></g></svg>