<?xml version="1.0" standalone="no"?>
<!DOCTYPE svg PUBLIC "-//W3C//DTD SVG 20010904//EN"
 "http://www.w3.org/TR/2001/REC-SVG-20010904/DTD/svg10.dtd">
<svg version="1.0" xmlns="http://www.w3.org/2000/svg"
 width="1206.000000pt" height="1206.000000pt" viewBox="0 0 1206.000000 1206.000000"
 preserveAspectRatio="xMidYMid meet">
<metadata>
Created by potrace 1.11, written by Peter Selinger 2001-2013
</metadata>
<g transform="translate(0.000000,1206.000000) scale(0.100000,-0.100000)"
fill="#000000" stroke="none">
<path d="M6794 11459 c-128 -16 -244 -78 -354 -189 -114 -114 -175 -247 -187
-406 -22 -303 184 -590 482 -669 167 -44 364 -14 507 78 144 92 271 278 293
427 9 69 6 239 -6 284 -38 140 -158 300 -292 387 -115 74 -283 108 -443 88z"/>
<path d="M4845 11303 c-11 -10 -15 -38 -16 -91 0 -42 -4 -86 -8 -97 -5 -11 -5
-27 -1 -35 4 -8 10 -65 12 -127 2 -61 7 -115 11 -120 9 -8 592 -12 600 -3 9
10 16 89 17 197 2 130 6 150 32 156 25 7 18 31 -10 35 -17 3 -22 10 -22 35 0
64 9 62 -310 63 -243 1 -293 -1 -305 -13z"/>
<path d="M5642 11228 c-12 -6 -21 -16 -19 -22 5 -16 52 -19 78 -5 22 11 22 12
4 25 -22 16 -32 17 -63 2z"/>
<path d="M5835 11231 c-19 -8 -19 -8 3 -20 30 -16 77 -10 77 9 0 17 -48 24
-80 11z"/>
<path d="M6037 11234 c-12 -13 -8 -20 19 -32 28 -14 68 0 61 21 -4 13 -69 22
-80 11z"/>
<path d="M6242 11222 c-24 -8 9 -32 44 -32 24 0 34 5 34 15 0 8 -3 15 -7 16
-34 4 -60 5 -71 1z"/>
<path d="M4642 11069 c-31 -12 -22 -35 12 -32 31 2 59 21 50 34 -7 11 -32 11
-62 -2z"/>
<path d="M4433 11008 c-46 -23 -17 -42 37 -24 19 6 34 16 33 21 -3 14 -44 16
-70 3z"/>
<path d="M4264 10955 c-39 -16 -51 -33 -29 -41 15 -6 71 12 80 26 11 19 -21
28 -51 15z"/>
<path d="M7635 10940 c-10 -15 5 -28 42 -39 42 -12 63 2 32 22 -36 22 -66 29
-74 17z"/>
<path d="M4074 10885 c-39 -16 -51 -33 -29 -41 20 -8 75 15 75 32 0 21 -13 23
-46 9z"/>
<path d="M7827 10873 c-13 -12 -7 -23 23 -38 33 -17 70 -20 70 -5 0 20 -80 57
-93 43z"/>
<path d="M3895 10812 c-22 -5 -55 -31 -55 -44 0 -15 45 -8 70 12 27 21 19 40
-15 32z"/>
<path d="M8015 10790 c-9 -15 11 -37 45 -48 52 -18 57 18 6 42 -40 19 -43 19
-51 6z"/>
<path d="M3695 10721 c-12 -5 -26 -15 -33 -24 -20 -24 15 -31 51 -10 46 27 31
54 -18 34z"/>
<path d="M8200 10700 c-17 -10 -16 -12 27 -34 63 -32 89 -11 31 24 -38 23 -38
23 -58 10z"/>
<path d="M3513 10625 c-36 -15 -45 -45 -14 -45 10 0 29 9 42 19 34 27 15 44
-28 26z"/>
<path d="M8384 10608 c-8 -13 39 -58 61 -58 18 0 26 13 17 27 -14 21 -70 44
-78 31z"/>
<path d="M3316 10511 c-40 -44 14 -48 55 -5 l22 24 -30 0 c-17 0 -37 -8 -47
-19z"/>
<path d="M8556 10501 c-6 -9 18 -33 52 -50 19 -10 23 -9 29 5 11 29 -65 72
-81 45z"/>
<path d="M3156 10409 c-30 -24 -34 -39 -8 -39 17 0 62 38 62 53 0 14 -28 7
-54 -14z"/>
<path d="M8737 10395 c-6 -14 44 -65 64 -65 17 0 9 26 -13 47 -34 30 -45 34
-51 18z"/>
<path d="M7453 10341 c-142 -39 -243 -109 -323 -226 -149 -217 -119 -529 69
-715 114 -113 234 -161 401 -161 148 1 239 31 357 121 l51 38 21 -24 c26 -30
70 -42 82 -23 7 10 -2 24 -32 50 l-40 36 35 59 c190 312 42 721 -301 836 -85
29 -232 33 -320 9z"/>
<path d="M2988 10299 c-30 -22 -37 -49 -14 -49 20 0 66 39 66 56 0 20 -20 17
-52 -7z"/>
<path d="M8906 10281 c-8 -12 32 -61 49 -61 28 0 27 23 -1 46 -32 26 -40 28
-48 15z"/>
<path d="M2819 10171 c-22 -22 -29 -35 -22 -42 13 -13 44 4 62 34 9 13 9 23 2
30 -7 7 -20 0 -42 -22z"/>
<path d="M9071 10156 c-9 -11 -5 -19 19 -40 18 -14 36 -26 41 -26 16 0 10 36
-8 52 -30 26 -40 28 -52 14z"/>
<path d="M2656 10045 c-21 -19 -26 -29 -18 -37 13 -13 84 30 79 47 -7 20 -34
15 -61 -10z"/>
<path d="M9230 10021 c0 -19 43 -61 61 -61 18 0 8 30 -18 55 -33 30 -43 31
-43 6z"/>
<path d="M5672 10014 c-29 -21 -1 -38 61 -35 20 1 27 6 27 21 0 11 -3 20 -7
21 -44 6 -66 4 -81 -7z"/>
<path d="M5883 10023 c-21 -8 -15 -33 11 -43 44 -16 97 10 74 37 -10 13 -61
16 -85 6z"/>
<path d="M6088 10019 c-23 -13 -23 -26 1 -39 28 -14 81 -2 81 20 0 26 -50 38
-82 19z"/>
<path d="M6285 10012 c-11 -11 -4 -40 11 -46 52 -20 113 6 79 34 -13 11 -82
20 -90 12z"/>
<path d="M5480 10003 c-15 -6 -30 -23 -30 -35 0 -4 16 -10 35 -14 25 -4 43 -1
62 11 25 17 26 18 8 31 -19 14 -48 17 -75 7z"/>
<path d="M6486 9981 c-11 -16 6 -41 31 -47 27 -7 73 9 73 26 0 22 -92 41 -104
21z"/>
<path d="M5266 9967 c-17 -12 -17 -15 -2 -30 24 -24 99 -7 94 21 -4 22 -66 28
-92 9z"/>
<path d="M6689 9944 c-20 -24 12 -46 66 -46 29 0 35 2 35 16 0 34 -78 57 -101
30z"/>
<path d="M5083 9935 c-36 -15 -41 -26 -20 -43 9 -8 24 -8 50 -1 43 12 53 24
37 44 -15 18 -26 18 -67 0z"/>
<path d="M2513 9922 c-24 -19 -34 -53 -16 -59 13 -5 65 47 60 61 -6 17 -21 16
-44 -2z"/>
<path d="M6898 9903 c-35 -9 -16 -37 34 -51 30 -8 40 -7 49 4 10 12 9 18 -2
29 -16 16 -57 25 -81 18z"/>
<path d="M9376 9893 c-10 -10 14 -43 43 -58 24 -12 30 -12 34 -1 9 22 -61 75
-77 59z"/>
<path d="M4638 9874 c-80 -19 -136 -47 -204 -104 -32 -27 -83 -66 -111 -86
-29 -20 -53 -39 -53 -41 0 -2 7 -14 15 -27 13 -19 14 -32 4 -75 -7 -34 -15
-49 -22 -45 -39 22 -78 58 -74 68 11 28 -10 40 -48 29 -20 -7 -46 -10 -58 -7
-169 34 -316 26 -432 -23 -265 -112 -434 -402 -394 -678 12 -84 14 -93 39
-155 54 -138 174 -269 308 -338 70 -36 107 -48 229 -69 l42 -8 -81 -85 c-430
-452 -677 -925 -814 -1558 -4 -21 -7 -19 -41 25 -125 164 -288 246 -478 239
-101 -4 -140 -14 -232 -57 -82 -37 -83 -38 -83 -15 0 13 -6 29 -14 35 -19 16
-32 -3 -40 -61 -5 -35 -19 -62 -53 -105 -146 -185 -166 -416 -55 -638 19 -38
40 -81 46 -95 6 -14 20 -27 31 -29 10 -2 42 -21 70 -42 64 -48 165 -94 233
-107 63 -11 218 -7 275 9 76 19 198 97 260 163 17 19 27 24 28 15 0 -8 2 -23
4 -34 2 -11 7 -58 10 -105 3 -47 8 -96 10 -110 3 -14 7 -47 11 -75 37 -306
158 -683 316 -984 151 -289 317 -513 557 -751 216 -215 475 -404 725 -532 67
-33 137 -71 156 -83 19 -12 53 -27 75 -34 22 -7 59 -20 82 -29 42 -17 42 -17
45 -72 3 -51 5 -55 28 -55 22 0 25 5 28 43 2 23 6 42 9 42 3 0 49 -13 102 -29
194 -60 416 -103 606 -118 177 -14 561 -8 661 11 10 2 44 7 74 11 44 6 165 28
270 50 176 37 497 159 689 262 697 375 1195 956 1462 1704 76 212 121 436 155
759 9 83 9 373 0 470 -34 374 -126 724 -278 1053 -36 80 -39 89 -23 100 22 17
10 43 -26 56 -20 7 -43 32 -75 83 -176 276 -287 420 -467 601 -490 495 -1109
800 -1802 887 -95 12 -588 16 -683 5 -278 -31 -630 -123 -850 -221 -29 -13
-55 -24 -57 -24 -2 0 -39 -17 -82 -38 -43 -20 -91 -43 -106 -50 l-29 -12 6 57
c4 32 9 83 12 113 7 65 16 84 48 105 19 13 32 14 67 6 71 -16 245 -6 308 19
120 47 222 137 267 235 21 45 25 69 25 150 0 80 -4 105 -24 149 -33 72 -117
156 -216 216 l-84 51 -121 -2 c-67 -1 -147 -8 -178 -15z"/>
<path d="M1749 9815 c-109 -22 -197 -84 -242 -169 -30 -58 -29 -162 2 -231 17
-37 24 -73 26 -139 2 -48 6 -91 9 -94 9 -8 79 26 111 54 29 25 55 26 147 9 10
-2 25 4 33 13 73 86 101 112 145 136 28 15 60 29 73 30 44 5 97 28 107 46 31
58 -6 186 -71 249 -78 76 -229 118 -340 96z"/>
<path d="M2366 9779 c-26 -20 -36 -59 -16 -59 12 0 60 49 60 61 0 18 -19 17
-44 -2z"/>
<path d="M9525 9750 c-8 -12 53 -72 66 -65 14 9 11 20 -16 49 -25 28 -40 32
-50 16z"/>
<path d="M10240 9753 c-80 -10 -88 -14 -98 -41 -5 -15 -10 -99 -11 -187 -1
-88 -3 -161 -4 -162 -1 -1 -45 -3 -96 -4 -108 -2 -157 -11 -179 -32 -17 -17
-20 -71 -21 -364 l-1 -203 -62 0 c-86 0 -96 -9 -62 -49 l27 -33 266 4 c234 3
269 5 291 21 13 9 32 17 42 17 23 0 23 12 -2 60 -17 33 -20 59 -20 165 l0 125
68 1 c107 2 165 8 190 21 37 19 40 46 41 346 l1 242 69 0 c39 0 72 4 75 8 2 4
-4 18 -14 31 -13 18 -32 26 -71 32 -52 7 -377 8 -429 2z"/>
<path d="M2227 9638 c-27 -25 -38 -73 -15 -66 20 7 50 54 46 74 -3 16 -6 15
-31 -8z"/>
<path d="M9670 9600 c0 -22 41 -70 60 -70 24 0 -7 63 -41 81 -16 8 -19 6 -19
-11z"/>
<path d="M9807 9454 c-9 -9 23 -62 41 -69 8 -3 18 -3 23 1 12 7 -16 60 -36 68
-20 7 -20 7 -28 0z"/>
<path d="M2145 9395 c-5 -2 -48 -15 -95 -30 -46 -14 -90 -31 -97 -37 -7 -6
-27 -39 -44 -74 -16 -35 -36 -64 -44 -64 -17 0 -67 -59 -62 -74 5 -12 11 -12
39 -1 12 5 18 -1 23 -27 24 -107 86 -187 185 -236 51 -25 64 -27 186 -27 124
0 132 -1 165 -25 35 -26 82 -50 99 -50 6 0 10 39 10 89 0 72 5 99 24 143 52
117 41 209 -36 293 -60 66 -105 95 -172 110 -49 11 -161 18 -181 10z"/>
<path d="M8186 9293 c-8 -19 27 -57 62 -68 38 -11 41 23 4 57 -37 32 -57 36
-66 11z"/>
<path d="M8353 9163 c-8 -21 50 -75 72 -67 23 9 18 40 -11 63 -32 25 -52 27
-61 4z"/>
<path d="M8510 9035 c-10 -12 -6 -20 21 -45 38 -34 57 -38 66 -13 4 11 -4 26
-25 45 -37 32 -45 34 -62 13z"/>
<path d="M1719 9007 c-9 -7 -21 -22 -27 -34 -19 -35 7 -41 35 -9 35 41 30 72
-8 43z"/>
<path d="M8663 8903 c-27 -10 30 -83 65 -83 23 0 18 31 -9 59 -30 31 -34 33
-56 24z"/>
<path d="M3157 8868 c-9 -5 -24 -22 -32 -37 -12 -25 -12 -31 0 -41 25 -21 75
21 75 63 0 20 -22 27 -43 15z"/>
<path d="M1612 8843 c-21 -8 -43 -58 -30 -71 12 -12 40 17 52 56 7 22 3 25
-22 15z"/>
<path d="M8811 8757 c-17 -21 -6 -53 25 -73 23 -16 54 -13 54 4 0 5 -15 26
-33 47 -29 33 -34 36 -46 22z"/>
<path d="M3011 8705 c-49 -42 -37 -94 14 -61 27 18 43 62 28 77 -7 7 -21 1
-42 -16z"/>
<path d="M1491 8651 c-24 -34 -27 -61 -7 -61 20 0 46 39 46 67 0 31 -14 29
-39 -6z"/>
<path d="M10395 8620 c-9 -15 25 -80 42 -80 7 0 13 10 13 23 0 29 -44 74 -55
57z"/>
<path d="M8936 8594 c-7 -18 12 -49 43 -70 45 -32 51 17 8 64 -24 26 -42 28
-51 6z"/>
<path d="M2876 8544 c-44 -45 -27 -97 19 -54 28 27 37 56 20 70 -9 7 -19 3
-39 -16z"/>
<path d="M1392 8461 c-20 -36 -20 -51 0 -51 14 0 47 61 41 76 -8 22 -18 17
-41 -25z"/>
<path d="M9066 8434 c-4 -9 2 -31 12 -48 21 -36 62 -48 62 -19 0 42 -62 98
-74 67z"/>
<path d="M10490 8426 c0 -14 11 -38 25 -53 l24 -28 1 30 c0 31 -24 75 -41 75
-5 0 -9 -11 -9 -24z"/>
<path d="M2758 8392 c-32 -36 -41 -63 -26 -78 15 -15 25 -10 56 30 27 35 27
42 3 55 -14 8 -22 6 -33 -7z"/>
<path d="M1300 8286 c-15 -39 -16 -59 -3 -63 13 -5 43 46 43 72 0 24 -29 18
-40 -9z"/>
<path d="M9193 8273 c-33 -12 10 -93 49 -93 17 0 19 4 13 28 -8 33 -45 72 -62
65z"/>
<path d="M10577 8254 c-7 -7 9 -52 25 -71 8 -10 14 -10 24 -2 11 9 10 17 -3
45 -16 32 -32 42 -46 28z"/>
<path d="M2642 8215 c-28 -35 -37 -64 -23 -78 8 -8 18 -4 35 12 30 28 38 55
22 77 -11 15 -15 14 -34 -11z"/>
<path d="M1226 8108 c-18 -25 -22 -78 -6 -78 12 0 26 27 33 68 7 37 -5 42 -27
10z"/>
<path d="M9290 8072 c0 -31 26 -62 52 -62 26 0 28 12 6 51 -27 48 -58 53 -58
11z"/>
<path d="M10655 8070 c-7 -12 32 -90 45 -90 24 0 0 84 -26 94 -7 3 -16 1 -19
-4z"/>
<path d="M2547 8049 c-9 -5 -24 -24 -33 -41 -15 -30 -15 -32 2 -45 10 -7 20
-13 23 -13 12 0 41 62 41 86 0 26 -6 29 -33 13z"/>
<path d="M1145 7910 c-17 -33 -20 -70 -6 -70 17 0 41 43 41 72 0 36 -16 36
-35 -2z"/>
<path d="M9387 7908 c-8 -22 32 -90 51 -86 25 5 26 34 2 68 -22 31 -45 39 -53
18z"/>
<path d="M10737 7876 c-8 -20 17 -86 32 -86 18 0 12 56 -7 80 -17 21 -19 21
-25 6z"/>
<path d="M2442 7860 c-25 -27 -33 -67 -17 -80 16 -13 40 7 53 47 15 44 -7 64
-36 33z"/>
<path d="M1081 7732 c-5 -10 -11 -31 -13 -48 -4 -42 24 -38 38 6 17 52 -2 84
-25 42z"/>
<path d="M9479 7723 c-1 -10 -1 -26 0 -35 2 -11 -21 -33 -66 -61 -312 -200
-362 -621 -104 -878 114 -113 262 -170 429 -164 148 5 267 59 374 169 111 113
151 219 152 396 0 156 -49 281 -151 384 -135 138 -298 191 -502 166 -61 -8
-66 -7 -83 16 -23 28 -48 31 -49 7z"/>
<path d="M2345 7659 c-29 -54 -3 -106 28 -57 27 43 30 66 8 78 -18 9 -23 6
-36 -21z"/>
<path d="M10803 7653 c7 -41 20 -59 37 -48 21 13 -7 85 -33 85 -6 0 -7 -15 -4
-37z"/>
<path d="M1016 7519 c-10 -23 -11 -39 -5 -52 14 -24 27 -13 35 29 10 51 -11
68 -30 23z"/>
<path d="M2275 7477 c-22 -34 -26 -64 -11 -76 22 -18 48 11 50 54 1 45 -16 56
-39 22z"/>
<path d="M10860 7469 c0 -36 17 -72 31 -64 21 13 3 95 -21 95 -6 0 -10 -14
-10 -31z"/>
<path d="M972 7338 c-17 -22 -22 -52 -12 -68 9 -13 12 -12 25 4 16 21 21 76 6
76 -5 0 -13 -6 -19 -12z"/>
<path d="M2204 7275 c-18 -44 -18 -71 1 -79 24 -9 51 44 46 90 0 7 -8 15 -17
18 -11 4 -19 -4 -30 -29z"/>
<path d="M10910 7267 c0 -41 25 -79 39 -58 8 13 1 57 -14 81 -13 20 -25 9 -25
-23z"/>
<path d="M926 7142 c-14 -23 -15 -70 -2 -81 12 -10 16 -5 26 24 12 37 8 65 -9
65 -5 0 -12 -4 -15 -8z"/>
<path d="M2156 7088 c-25 -39 -30 -77 -12 -84 26 -10 46 15 46 57 0 46 -14 57
-34 27z"/>
<path d="M10957 7093 c-10 -10 -8 -52 3 -73 15 -29 41 -14 34 19 -14 63 -20
72 -37 54z"/>
<path d="M965 6984 c-343 -49 -587 -342 -569 -684 12 -236 157 -447 386 -564
33 -16 44 -28 49 -52 9 -46 18 -57 35 -43 8 6 14 21 14 33 0 20 4 21 153 21
156 0 182 5 277 48 128 59 278 214 333 342 89 210 52 477 -91 655 -91 113
-228 201 -359 230 -55 13 -183 20 -228 14z"/>
<path d="M10987 6880 c-11 -43 24 -105 39 -67 7 19 -9 80 -23 84 -6 2 -13 -5
-16 -17z"/>
<path d="M11010 6657 c0 -18 6 -42 14 -53 14 -18 15 -18 21 9 9 36 -2 77 -20
77 -10 0 -15 -11 -15 -33z"/>
<path d="M9801 6538 c-8 -24 2 -75 18 -91 16 -16 31 3 31 39 0 63 -32 97 -49
52z"/>
<path d="M11031 6477 c-12 -16 -1 -69 17 -75 8 -2 12 10 12 37 0 43 -11 58
-29 38z"/>
<path d="M9814 6324 c-9 -34 6 -78 28 -82 12 -2 19 6 23 31 12 62 -37 109 -51
51z"/>
<path d="M11034 6256 c-7 -28 12 -69 29 -63 11 3 13 25 9 72 -3 24 -31 17 -38
-9z"/>
<path d="M9834 6142 c-31 -20 -27 -106 6 -115 20 -5 30 16 30 64 0 31 -21 61
-36 51z"/>
<path d="M10825 6143 c-282 -57 -482 -241 -552 -506 -23 -88 -23 -262 1 -347
61 -213 226 -393 426 -466 101 -36 145 -43 250 -40 196 6 318 58 460 193 140
133 206 281 209 468 4 236 -83 425 -258 559 -65 51 -178 110 -231 122 -19 4
-42 10 -50 12 -21 6 -231 10 -255 5z"/>
<path d="M9816 5914 c-12 -31 -6 -84 10 -91 20 -8 32 5 37 42 7 51 -31 91 -47
49z"/>
<path d="M2042 5868 c-18 -18 -15 -53 7 -79 l19 -24 12 27 c8 18 9 35 3 54
-11 32 -24 39 -41 22z"/>
<path d="M9800 5704 c-14 -36 -12 -70 4 -83 25 -21 52 42 36 85 -12 31 -28 30
-40 -2z"/>
<path d="M2060 5664 c-21 -24 -1 -88 28 -92 19 -3 22 1 22 33 0 38 -14 75 -29
75 -5 0 -14 -7 -21 -16z"/>
<path d="M855 5483 c8 -46 25 -70 36 -52 10 17 2 71 -13 81 -25 15 -30 8 -23
-29z"/>
<path d="M9770 5501 c-13 -25 -13 -47 0 -71 22 -41 58 11 44 65 -7 30 -29 33
-44 6z"/>
<path d="M2094 5468 c-10 -17 -6 -78 6 -94 19 -22 40 -5 40 33 0 55 -27 92
-46 61z"/>
<path d="M886 5311 c-9 -13 5 -69 19 -81 10 -8 14 -4 19 14 11 42 -20 96 -38
67z"/>
<path d="M9741 5306 c-6 -7 -12 -31 -14 -52 -2 -33 1 -39 17 -39 24 0 48 61
34 88 -11 21 -22 22 -37 3z"/>
<path d="M2127 5256 c-9 -22 12 -86 30 -93 21 -8 32 13 26 51 -8 50 -43 76
-56 42z"/>
<path d="M923 5079 c6 -48 28 -69 39 -38 5 12 2 32 -7 50 -23 43 -39 37 -32
-12z"/>
<path d="M9693 5107 c-24 -33 -32 -65 -19 -83 7 -9 18 -14 25 -10 18 12 41 63
35 80 -8 20 -31 27 -41 13z"/>
<path d="M2177 5051 c-6 -23 22 -83 40 -89 19 -6 26 43 11 75 -16 34 -43 42
-51 14z"/>
<path d="M9624 4895 c-18 -44 -18 -71 0 -78 20 -8 37 16 43 61 4 30 2 40 -11
45 -13 5 -21 -2 -32 -28z"/>
<path d="M967 4907 c-7 -18 16 -80 31 -85 8 -2 12 7 12 28 0 51 -30 91 -43 57z"/>
<path d="M2240 4865 c-9 -11 -8 -23 7 -52 32 -67 75 -46 47 23 -15 37 -38 49
-54 29z"/>
<path d="M9567 4718 c-25 -19 -40 -77 -21 -85 24 -9 43 5 52 39 9 33 6 58 -7
58 -4 0 -15 -6 -24 -12z"/>
<path d="M1017 4707 c-6 -17 19 -77 33 -77 11 0 14 49 4 74 -7 19 -30 21 -37
3z"/>
<path d="M2316 4683 c-10 -11 -7 -52 6 -73 12 -18 7 -26 -41 -72 -67 -64 -122
-149 -146 -223 -26 -86 -17 -259 18 -335 67 -143 169 -234 321 -285 68 -22
176 -20 275 5 64 16 85 18 100 9 28 -18 53 -5 46 24 -5 19 3 34 42 73 68 68
108 129 133 205 70 207 -6 441 -182 563 -129 88 -295 112 -437 63 l-73 -26
-10 30 c-10 30 -40 54 -52 42z"/>
<path d="M10835 4660 c-14 -23 -22 -68 -15 -80 13 -22 45 38 41 78 -1 15 -17
16 -26 2z"/>
<path d="M9481 4519 c-22 -24 -28 -73 -10 -85 27 -16 69 75 44 96 -10 8 -18 6
-34 -11z"/>
<path d="M1080 4501 c0 -16 9 -39 19 -52 17 -21 20 -22 26 -8 7 20 -19 89 -34
89 -6 0 -11 -13 -11 -29z"/>
<path d="M10760 4444 c-12 -32 -13 -64 -1 -64 14 0 31 25 37 58 5 26 3 32 -10
32 -9 0 -21 -12 -26 -26z"/>
<path d="M9381 4326 c-25 -40 -27 -64 -5 -73 21 -8 53 33 54 68 0 41 -26 43
-49 5z"/>
<path d="M1150 4307 c0 -21 7 -41 19 -51 26 -23 34 -6 19 40 -17 50 -38 56
-38 11z"/>
<path d="M10687 4243 c-10 -25 -12 -41 -5 -48 13 -14 48 30 48 61 0 37 -26 29
-43 -13z"/>
<path d="M9273 4139 c-18 -16 -34 -34 -34 -40 -5 -38 -22 -58 -55 -68 -16 -4
-39 -5 -51 0 -16 6 -27 3 -38 -8 -14 -14 -14 -18 0 -39 14 -21 13 -27 -2 -59
-16 -34 -38 -49 -63 -43 -6 2 -17 -5 -23 -15 -10 -15 -8 -22 12 -38 22 -18 24
-24 14 -50 -9 -23 -8 -32 3 -44 13 -12 12 -15 -6 -25 -25 -14 -28 -59 -2 -61
9 -1 22 -1 29 0 16 2 53 -48 53 -71 0 -11 -4 -27 -10 -37 -6 -12 -5 -24 3 -35
10 -14 17 -14 43 -4 45 17 91 -4 102 -46 10 -38 40 -45 67 -16 25 28 101 29
110 1 3 -11 12 -22 20 -25 18 -6 45 19 45 43 0 16 29 49 57 65 7 4 23 0 36 -9
22 -14 25 -14 40 3 14 16 15 21 2 45 -12 24 -11 30 8 59 13 18 35 35 53 40 45
11 49 33 14 60 -37 27 -42 84 -10 113 19 18 28 54 13 56 -34 3 -51 11 -70 34
-25 29 -28 42 -14 79 14 36 -9 53 -49 36 -25 -10 -34 -9 -62 7 -21 12 -33 27
-34 42 -1 12 -9 30 -18 39 -16 16 -19 15 -44 -16 -22 -26 -34 -32 -64 -32
l-37 0 13 33 c25 61 0 75 -51 26z"/>
<path d="M1227 4133 c-3 -5 0 -24 7 -43 13 -41 43 -49 37 -10 -6 46 -31 75
-44 53z"/>
<path d="M10633 4092 c-7 -4 -19 -24 -27 -44 -13 -31 -13 -37 -1 -41 16 -7 30
8 44 44 10 29 2 52 -16 41z"/>
<path d="M932 4074 c-121 -32 -242 -146 -281 -266 -7 -21 -12 -82 -13 -137 0
-86 4 -108 25 -155 36 -77 72 -123 141 -173 64 -47 134 -72 220 -77 239 -16
447 197 430 438 -17 262 -267 439 -522 370z"/>
<path d="M10531 3879 c-22 -35 -24 -63 -6 -62 6 0 19 16 30 36 15 28 17 39 8
48 -9 9 -17 4 -32 -22z"/>
<path d="M10430 3688 c-13 -30 -16 -44 -8 -47 17 -6 48 37 48 65 0 37 -19 28
-40 -18z"/>
<path d="M9843 3702 c-7 -5 -15 -23 -17 -41 -6 -49 -63 -84 -104 -62 -42 22
-74 -15 -47 -55 14 -21 14 -27 1 -52 -18 -35 -37 -51 -67 -57 -21 -4 -39 -21
-39 -38 0 -4 13 -16 30 -25 25 -14 30 -23 30 -57 0 -31 -6 -46 -30 -68 -35
-34 -30 -54 16 -63 56 -10 89 -68 65 -113 -19 -34 28 -61 64 -37 20 13 26 12
59 -10 20 -14 36 -33 36 -42 0 -10 6 -27 14 -37 13 -18 17 -18 40 -6 14 8 26
20 26 28 0 18 37 16 48 -2 9 -17 42 -10 42 9 0 6 8 1 18 -11 34 -43 64 -32 76
28 8 36 64 66 94 50 16 -8 28 -9 42 -1 22 12 25 32 9 58 -9 14 -7 27 7 57 16
33 25 41 54 45 45 6 54 41 16 66 -21 13 -26 24 -26 59 0 28 6 47 19 59 10 10
22 34 26 54 4 20 13 49 21 64 9 18 10 29 4 33 -15 9 -41 -15 -57 -52 -18 -44
-35 -41 -62 8 -20 35 -21 44 -11 70 19 46 -1 58 -75 44 -38 -7 -76 21 -80 60
-3 25 -19 44 -37 45 -4 0 -15 -11 -26 -25 -15 -19 -30 -25 -66 -26 -39 -2 -49
2 -67 24 -22 29 -27 31 -46 19z"/>
<path d="M8928 3643 c-33 -37 -42 -62 -23 -69 35 -14 95 56 73 84 -15 17 -21
15 -50 -15z"/>
<path d="M2951 3627 c-17 -21 -6 -53 25 -73 23 -16 54 -13 54 4 0 5 -15 26
-33 47 -29 33 -34 36 -46 22z"/>
<path d="M1490 3577 c0 -7 11 -28 24 -45 18 -26 26 -30 34 -19 8 10 6 21 -8
45 -20 32 -50 44 -50 19z"/>
<path d="M8793 3488 c-26 -33 -33 -56 -19 -67 16 -14 63 23 68 54 4 24 -33 33
-49 13z"/>
<path d="M3082 3467 c-13 -16 27 -72 58 -80 30 -8 26 34 -6 67 -30 29 -37 31
-52 13z"/>
<path d="M3777 3312 c-25 -70 -102 -286 -172 -480 -70 -195 -124 -356 -122
-359 10 -9 697 -254 748 -266 20 -5 29 -2 34 11 4 9 63 172 131 362 l125 345
60 57 c66 63 73 91 25 96 -24 3 -27 7 -21 25 18 59 25 55 -220 143 -126 46
-300 108 -387 138 l-156 55 -45 -127z"/>
<path d="M1600 3401 c0 -20 36 -71 51 -71 16 0 10 37 -12 64 -24 31 -39 33
-39 7z"/>
<path d="M8639 3329 c-23 -25 -27 -35 -18 -45 16 -20 24 -18 58 16 30 31 32
60 4 60 -8 0 -28 -14 -44 -31z"/>
<path d="M3224 3316 c-7 -19 12 -53 37 -67 48 -25 65 16 24 56 -27 28 -53 32
-61 11z"/>
<path d="M2326 3264 c-194 -47 -361 -209 -411 -400 -21 -79 -20 -224 1 -294
56 -189 189 -327 374 -390 76 -26 231 -31 316 -11 51 12 51 12 82 -18 30 -31
62 -41 62 -20 0 6 -13 23 -29 38 l-29 27 51 31 c99 60 202 178 240 277 84 220
35 450 -131 614 -137 136 -338 191 -526 146z"/>
<path d="M1715 3239 c-16 -25 36 -92 56 -72 8 8 6 20 -7 42 -20 33 -40 46 -49
30z"/>
<path d="M8495 3194 c-27 -30 -33 -64 -11 -64 22 0 76 59 69 75 -8 23 -31 18
-58 -11z"/>
<path d="M3377 3183 c-10 -16 13 -53 42 -67 37 -19 38 -20 44 -1 11 28 -71 93
-86 68z"/>
<path d="M8354 3077 c-42 -23 -62 -62 -37 -71 17 -7 28 -2 61 27 37 34 19 68
-24 44z"/>
<path d="M1830 3063 c1 -27 37 -66 55 -59 14 5 14 9 1 35 -13 24 -34 41 -52
41 -2 0 -4 -8 -4 -17z"/>
<path d="M3533 3043 c-8 -19 38 -63 67 -63 34 0 34 22 1 52 -35 32 -59 36 -68
11z"/>
<path d="M6932 2970 c-208 -55 -374 -236 -406 -445 -7 -39 -8 -180 -3 -220 1
-15 -6 -21 -37 -26 -37 -6 -60 -25 -50 -41 3 -4 29 -8 58 -8 l54 0 28 -57 c42
-84 171 -212 254 -250 201 -94 430 -73 589 54 161 127 224 266 220 482 l-2
105 37 23 c20 13 36 28 36 33 0 18 -30 23 -64 13 l-32 -10 -34 65 c-19 37 -61
93 -99 131 -147 148 -348 203 -549 151z"/>
<path d="M8179 2947 c-36 -24 -45 -60 -17 -65 25 -5 81 49 73 71 -9 22 -15 22
-56 -6z"/>
<path d="M9863 2854 c-22 -25 -31 -64 -15 -64 17 0 52 47 52 68 0 29 -10 28
-37 -4z"/>
<path d="M7983 2818 c-23 -26 -20 -48 7 -48 23 0 82 49 74 61 -10 17 -60 9
-81 -13z"/>
<path d="M7843 2735 c-38 -16 -62 -53 -42 -66 16 -9 89 26 89 44 -1 29 -14 36
-47 22z"/>
<path d="M9725 2695 c-26 -26 -31 -40 -16 -50 12 -7 61 41 61 60 0 22 -18 18
-45 -10z"/>
<path d="M9594 2552 c-25 -20 -37 -49 -24 -57 12 -8 73 53 65 65 -9 14 -17 12
-41 -8z"/>
<path d="M4414 2528 c-9 -14 28 -46 63 -54 49 -13 55 33 7 55 -32 14 -61 14
-70 -1z"/>
<path d="M4613 2454 c-8 -22 17 -44 60 -51 33 -5 37 -3 37 16 0 16 -10 26 -35
37 -44 18 -54 18 -62 -2z"/>
<path d="M9440 2400 c-31 -33 -29 -57 3 -44 25 9 51 54 38 67 -7 7 -19 0 -41
-23z"/>
<path d="M4805 2390 c-10 -16 4 -31 43 -47 31 -13 36 -13 51 2 15 15 14 18 -8
36 -25 20 -76 26 -86 9z"/>
<path d="M5006 2335 c-9 -24 -1 -33 40 -44 39 -11 64 -6 64 14 0 19 -24 35
-63 42 -26 4 -36 1 -41 -12z"/>
<path d="M5210 2295 c-21 -25 11 -47 65 -47 29 0 35 2 35 16 0 35 -77 59 -100
31z"/>
<path d="M9285 2264 c-27 -29 -30 -40 -15 -49 14 -8 75 50 66 63 -11 18 -25
14 -51 -14z"/>
<path d="M5416 2264 c-23 -22 -5 -41 43 -46 36 -3 65 22 46 41 -21 19 -72 23
-89 5z"/>
<path d="M6239 2241 l-23 -18 23 -13 c28 -15 87 -5 95 16 4 10 -3 18 -20 24
-36 14 -49 13 -75 -9z"/>
<path d="M5617 2243 c-27 -26 35 -59 78 -43 28 11 31 20 13 38 -13 13 -80 17
-91 5z"/>
<path d="M5838 2242 c-21 -4 -30 -28 -15 -40 26 -22 63 -24 88 -3 13 10 21 22
17 26 -9 10 -70 22 -90 17z"/>
<path d="M6029 2234 c-27 -32 24 -58 75 -38 19 7 22 44 4 45 -7 1 -25 2 -41 3
-15 2 -32 -3 -38 -10z"/>
<path d="M9135 2138 c-21 -16 -50 -23 -128 -30 -245 -22 -407 -127 -504 -325
-25 -51 -54 -104 -65 -119 -16 -19 -18 -28 -9 -34 8 -4 15 -39 18 -86 12 -191
77 -326 210 -436 172 -142 403 -167 613 -66 89 43 203 158 248 252 104 215 63
469 -106 642 -63 66 -124 106 -200 134 -56 20 -61 25 -49 39 37 43 17 64 -28
29z"/>
<path d="M2837 2056 c-6 -15 42 -66 61 -66 18 0 14 31 -5 47 -37 28 -51 33
-56 19z"/>
<path d="M6235 2006 c-136 -32 -247 -97 -348 -206 -123 -133 -168 -252 -168
-444 -1 -204 47 -323 186 -461 90 -90 177 -145 280 -178 96 -30 299 -30 392 0
167 55 324 188 401 340 58 112 81 291 57 422 -46 238 -201 416 -440 507 -87
32 -263 42 -360 20z"/>
<path d="M2995 1940 c-4 -6 8 -24 25 -41 25 -26 33 -29 45 -19 12 10 13 16 3
27 -19 23 -66 44 -73 33z"/>
<path d="M3170 1812 c0 -20 54 -57 70 -47 15 9 0 35 -31 50 -36 19 -39 19 -39
-3z"/>
<path d="M3510 1675 l0 -75 -75 0 c-53 0 -75 -4 -75 -12 0 -27 17 -36 80 -43
36 -4 66 -8 67 -9 1 0 4 -30 6 -65 5 -61 16 -80 45 -81 8 0 12 22 12 75 l0 75
75 0 75 0 0 30 0 29 -72 3 -73 3 -3 73 -3 72 -29 0 -30 0 0 -75z"/>
<path d="M3344 1709 c-8 -14 33 -48 58 -49 31 0 29 20 -4 40 -38 23 -44 24
-54 9z"/>
<path d="M8284 1585 c-34 -14 -50 -40 -30 -48 15 -6 76 28 76 42 0 18 -15 19
-46 6z"/>
<path d="M3705 1521 c-8 -15 36 -51 62 -51 33 0 29 17 -9 40 -37 22 -44 24
-53 11z"/>
<path d="M8075 1480 c-27 -30 -7 -44 33 -22 38 20 42 36 9 40 -14 2 -31 -5
-42 -18z"/>
<path d="M3880 1431 c0 -17 43 -41 72 -41 36 0 36 16 -2 35 -33 17 -70 20 -70
6z"/>
<path d="M7908 1409 c-25 -10 -44 -36 -33 -47 10 -10 80 24 83 41 4 19 -10 20
-50 6z"/>
<path d="M4076 1355 c-7 -19 16 -35 58 -42 59 -9 40 29 -22 47 -23 6 -32 5
-36 -5z"/>
<path d="M7718 1333 c-40 -16 -51 -43 -18 -43 28 0 70 21 70 36 0 21 -13 23
-52 7z"/>
<path d="M4270 1290 c-7 -4 -10 -13 -6 -19 9 -13 84 -36 92 -28 19 19 -61 62
-86 47z"/>
<path d="M7515 1263 c-40 -21 -42 -23 -26 -32 15 -9 68 2 84 18 19 19 -27 30
-58 14z"/>
<path d="M4465 1221 c-7 -13 34 -41 62 -41 32 0 37 16 11 34 -25 18 -64 21
-73 7z"/>
<path d="M7300 1195 c-8 -10 -9 -19 -4 -24 12 -12 76 10 82 27 6 18 -63 15
-78 -3z"/>
<path d="M4663 1173 c-7 -3 -13 -8 -13 -12 0 -12 48 -31 75 -31 34 0 32 28 -2
36 -16 3 -32 7 -38 8 -5 2 -16 1 -22 -1z"/>
<path d="M7131 1156 c-40 -13 -50 -32 -23 -40 26 -9 72 10 72 28 0 22 -11 25
-49 12z"/>
<path d="M4862 1122 c-17 -12 2 -27 45 -36 32 -7 54 7 36 25 -13 13 -66 21
-81 11z"/>
<path d="M5062 1073 c4 -24 88 -32 88 -10 0 18 -21 27 -62 27 -23 0 -29 -4
-26 -17z"/>
<path d="M5264 1049 c-15 -24 46 -44 80 -26 19 9 19 10 1 23 -22 17 -71 18
-81 3z"/>
<path d="M5466 1031 c-13 -21 59 -47 81 -29 10 8 10 14 2 24 -13 15 -75 19
-83 5z"/>
<path d="M5683 1023 c-22 -8 -14 -31 13 -37 32 -8 64 1 64 19 0 21 -44 32 -77
18z"/>
</g>
</svg>
