<?xml version="1.0" encoding="UTF-8" standalone="no"?><!DOCTYPE svg PUBLIC "-//W3C//DTD SVG 1.1//EN" "http://www.w3.org/Graphics/SVG/1.1/DTD/svg11.dtd"><svg width="100%" height="100%" viewBox="0 0 322 604" version="1.1" xmlns="http://www.w3.org/2000/svg" xmlns:xlink="http://www.w3.org/1999/xlink" xml:space="preserve" xmlns:serif="http://www.serif.com/" style="fill-rule:evenodd;clip-rule:evenodd;stroke-linejoin:round;stroke-miterlimit:1.41421;"><g><path d="M161.248,221.061l160.057,-46.091c0,0 9.233,141.194 -160.484,426.999l0.427,1.136l-0.551,-0.928l-0.551,0.928l0.428,-1.136c-169.718,-285.805 -160.485,-426.999 -160.485,-426.999l161.159,46.091Z" style="fill:#755c98;"/><g><g><path d="M321.394,160.34c0,88.553 -71.786,160.34 -160.339,160.34c-88.554,0 -160.34,-71.787 -160.34,-160.34c0,-88.554 71.786,-160.34 160.34,-160.34c88.553,0 160.339,71.786 160.339,160.34" style="fill:#52337e;fill-rule:nonzero;"/></g></g><g><g><path d="M101.143,125.143l12.047,0c0.582,0 1.053,0.407 1.053,0.908l0,68.537c0,0.502 -0.471,0.909 -1.053,0.909l-12.047,0c-0.581,0 -1.052,-0.407 -1.052,-0.909l0,-68.537c0,-0.501 0.471,-0.908 1.052,-0.908" style="fill:#fff;fill-rule:nonzero;"/><path d="M136.513,125.143l12.047,0c0.581,0 1.052,0.407 1.052,0.908l0,68.537c0,0.502 -0.471,0.909 -1.052,0.909l-12.047,0c-0.581,0 -1.052,-0.407 -1.052,-0.909l0,-68.537c0,-0.501 0.471,-0.908 1.052,-0.908" style="fill:#fff;fill-rule:nonzero;"/><path d="M173.549,125.143l12.047,0c0.581,0 1.052,0.407 1.052,0.908l0,68.537c0,0.502 -0.471,0.909 -1.052,0.909l-12.047,0c-0.581,0 -1.052,-0.407 -1.052,-0.909l0,-68.537c0,-0.501 0.471,-0.908 1.052,-0.908" style="fill:#fff;fill-rule:nonzero;"/><path d="M209.886,125.143l12.048,0c0.581,0 1.052,0.407 1.052,0.908l0,68.537c0,0.502 -0.471,0.909 -1.052,0.909l-12.048,0c-0.581,0 -1.052,-0.407 -1.052,-0.909l0,-68.537c0,-0.501 0.471,-0.908 1.052,-0.908" style="fill:#fff;fill-rule:nonzero;"/><path d="M237.899,115.629c0,-0.272 -0.166,-0.508 -0.4,-0.569l-76.354,-23.045c-0.076,-0.02 -0.155,-0.02 -0.23,0l-76.354,23.045c-0.234,0.061 -0.401,0.297 -0.401,0.569l0,5.333c0,0.419 0.246,0.76 0.549,0.76l152.612,0c0.303,0 0.548,-0.341 0.548,-0.76l0.03,-5.333Z" style="fill:#fff;fill-rule:nonzero;"/><path d="M199.496,199.823l-38.431,0l-0.021,0l-38.431,0l-38.165,0c-0.159,0 -0.287,0.272 -0.287,0.608l0,5.717c0,0.337 0.128,0.609 0.287,0.609l153.213,0c0.159,0 0.287,-0.272 0.287,-0.609l0,-5.717c0,-0.336 -0.128,-0.608 -0.287,-0.608l-38.165,0Z" style="fill:#fff;fill-rule:nonzero;"/><path d="M204.652,211.632l-43.586,0l0,-0.001l-43.407,0l-43.101,0c-0.169,0 -0.306,0.273 -0.306,0.609l0,5.717c0,0.337 0.137,0.609 0.306,0.609l172.993,0c0.169,0 0.306,-0.272 0.306,-0.609l0,-5.717c0,-0.336 -0.137,-0.609 -0.306,-0.609l-42.899,0.001Z" style="fill:#fff;fill-rule:nonzero;"/></g></g><path d="M158.35,2.414c-0.654,0 -1.19,-0.525 -1.2,-1.181c-0.008,-0.662 0.521,-1.207 1.183,-1.217c0.784,-0.011 1.57,-0.016 2.359,-0.016l0.064,0c0.663,0 1.199,0.537 1.199,1.199c0,0.662 -0.536,1.199 -1.199,1.199l-0.064,0c-0.777,0 -1.552,0.005 -2.325,0.016l-0.017,0Zm10.823,0.206c-0.022,0 -0.043,-0.001 -0.064,-0.003c-0.794,-0.041 -1.589,-0.077 -2.386,-0.107c-0.661,-0.024 -1.178,-0.581 -1.154,-1.243c0.026,-0.661 0.587,-1.176 1.244,-1.153c0.809,0.03 1.616,0.067 2.421,0.109c0.662,0.034 1.17,0.599 1.135,1.26c-0.033,0.64 -0.563,1.137 -1.196,1.137m-19.238,0.135c-0.626,0 -1.153,-0.486 -1.195,-1.12c-0.044,-0.661 0.456,-1.232 1.117,-1.276c0.804,-0.053 1.611,-0.102 2.42,-0.143c0.657,-0.024 1.225,0.474 1.259,1.136c0.034,0.662 -0.475,1.225 -1.137,1.259c-0.795,0.042 -1.589,0.088 -2.382,0.141c-0.028,0.001 -0.055,0.003 -0.082,0.003m27.632,0.525c-0.043,0 -0.084,-0.003 -0.127,-0.007c-0.792,-0.083 -1.583,-0.161 -2.377,-0.231c-0.66,-0.06 -1.146,-0.643 -1.088,-1.302c0.061,-0.66 0.635,-1.142 1.303,-1.088c0.806,0.073 1.609,0.151 2.412,0.236c0.659,0.069 1.137,0.659 1.068,1.318c-0.066,0.616 -0.586,1.074 -1.191,1.074m-36.015,0.254c-0.598,0 -1.116,-0.447 -1.189,-1.056c-0.079,-0.658 0.391,-1.255 1.048,-1.334c0.802,-0.096 1.605,-0.186 2.41,-0.27c0.657,-0.069 1.248,0.41 1.316,1.069c0.069,0.659 -0.409,1.248 -1.068,1.317c-0.793,0.082 -1.584,0.171 -2.372,0.265c-0.049,0.006 -0.097,0.009 -0.145,0.009m44.36,0.847c-0.063,0 -0.126,-0.005 -0.189,-0.015c-0.785,-0.126 -1.572,-0.244 -2.36,-0.357c-0.657,-0.094 -1.112,-0.701 -1.017,-1.357c0.093,-0.656 0.7,-1.109 1.356,-1.018c0.802,0.116 1.601,0.236 2.398,0.363c0.654,0.104 1.099,0.719 0.995,1.373c-0.093,0.59 -0.603,1.011 -1.183,1.011m-52.689,0.373c-0.573,0 -1.079,-0.411 -1.18,-0.994c-0.114,-0.653 0.324,-1.273 0.976,-1.387c0.795,-0.137 1.592,-0.27 2.392,-0.396c0.653,-0.103 1.268,0.343 1.371,0.998c0.103,0.654 -0.343,1.267 -0.997,1.371c-0.787,0.124 -1.573,0.254 -2.356,0.39c-0.069,0.012 -0.138,0.018 -0.206,0.018m60.967,1.168c-0.083,0 -0.168,-0.01 -0.253,-0.027c-0.777,-0.167 -1.557,-0.327 -2.338,-0.482c-0.65,-0.129 -1.073,-0.759 -0.943,-1.409c0.128,-0.649 0.76,-1.072 1.408,-0.943c0.794,0.157 1.586,0.32 2.376,0.489c0.647,0.138 1.06,0.775 0.921,1.423c-0.12,0.563 -0.618,0.949 -1.171,0.949m-69.221,0.491c-0.547,0 -1.04,-0.376 -1.168,-0.932c-0.147,-0.645 0.257,-1.288 0.902,-1.436c0.787,-0.179 1.576,-0.354 2.366,-0.522c0.647,-0.14 1.285,0.275 1.423,0.922c0.138,0.648 -0.275,1.285 -0.922,1.423c-0.78,0.166 -1.557,0.337 -2.332,0.515c-0.091,0.02 -0.18,0.03 -0.269,0.03m77.403,1.486c-0.104,0 -0.208,-0.013 -0.313,-0.042c-0.768,-0.207 -1.538,-0.409 -2.309,-0.605c-0.643,-0.163 -1.031,-0.815 -0.868,-1.457c0.163,-0.641 0.812,-1.031 1.456,-0.867c0.785,0.198 1.567,0.403 2.346,0.614c0.639,0.173 1.017,0.831 0.845,1.47c-0.145,0.535 -0.628,0.887 -1.157,0.887m-85.557,0.609c-0.521,0 -1.002,-0.343 -1.152,-0.87c-0.182,-0.637 0.187,-1.3 0.824,-1.482c0.776,-0.221 1.554,-0.437 2.336,-0.647c0.641,-0.174 1.297,0.206 1.469,0.846c0.172,0.639 -0.206,1.297 -0.846,1.469c-0.769,0.207 -1.536,0.42 -2.301,0.638c-0.11,0.032 -0.221,0.046 -0.33,0.046m93.633,1.804c-0.123,0 -0.249,-0.019 -0.373,-0.06c-0.759,-0.249 -1.52,-0.492 -2.284,-0.73c-0.632,-0.196 -0.986,-0.869 -0.788,-1.501c0.196,-0.633 0.869,-0.986 1.501,-0.789c0.775,0.242 1.547,0.489 2.318,0.742c0.629,0.205 0.972,0.883 0.766,1.513c-0.166,0.505 -0.635,0.825 -1.14,0.825m-101.664,0.722c-0.497,0 -0.963,-0.312 -1.133,-0.809c-0.216,-0.626 0.118,-1.308 0.744,-1.524c0.763,-0.263 1.529,-0.519 2.298,-0.771c0.628,-0.207 1.307,0.137 1.513,0.767c0.206,0.629 -0.138,1.306 -0.768,1.512c-0.757,0.248 -1.512,0.501 -2.264,0.76c-0.129,0.044 -0.26,0.065 -0.39,0.065m109.615,2.123c-0.145,0 -0.291,-0.026 -0.434,-0.081c-0.743,-0.289 -1.49,-0.572 -2.24,-0.85c-0.62,-0.23 -0.937,-0.92 -0.707,-1.541c0.231,-0.622 0.92,-0.938 1.542,-0.708c0.76,0.283 1.518,0.57 2.274,0.863c0.617,0.24 0.924,0.935 0.683,1.552c-0.185,0.475 -0.638,0.765 -1.118,0.765m-117.501,0.827c-0.473,0 -0.922,-0.283 -1.111,-0.75c-0.248,-0.614 0.048,-1.313 0.662,-1.561c0.748,-0.304 1.499,-0.6 2.254,-0.893c0.616,-0.238 1.312,0.068 1.551,0.685c0.239,0.618 -0.068,1.313 -0.686,1.552c-0.742,0.288 -1.482,0.581 -2.22,0.879c-0.147,0.06 -0.299,0.088 -0.45,0.088m125.286,2.437c-0.165,0 -0.333,-0.034 -0.493,-0.106c-0.727,-0.328 -1.457,-0.651 -2.19,-0.968c-0.608,-0.263 -0.887,-0.968 -0.625,-1.576c0.264,-0.608 0.968,-0.888 1.577,-0.625c0.745,0.322 1.486,0.65 2.224,0.983c0.604,0.272 0.873,0.983 0.601,1.586c-0.201,0.444 -0.637,0.706 -1.094,0.706m-132.979,0.916c-0.451,0 -0.884,-0.255 -1.088,-0.691c-0.28,-0.6 -0.022,-1.313 0.578,-1.594c0.729,-0.341 1.461,-0.677 2.197,-1.007c0.602,-0.271 1.313,-0.002 1.585,0.602c0.271,0.604 0.001,1.314 -0.603,1.585c-0.724,0.325 -1.445,0.656 -2.162,0.992c-0.165,0.077 -0.338,0.113 -0.507,0.113m140.574,2.755c-0.185,0 -0.372,-0.043 -0.549,-0.134c-0.708,-0.365 -1.42,-0.727 -2.134,-1.082c-0.593,-0.294 -0.835,-1.015 -0.541,-1.607c0.295,-0.593 1.014,-0.836 1.608,-0.54c0.726,0.36 1.449,0.727 2.168,1.098c0.588,0.304 0.819,1.027 0.516,1.616c-0.214,0.412 -0.633,0.649 -1.068,0.649m-148.086,1.003c-0.429,0 -0.843,-0.23 -1.058,-0.634c-0.313,-0.585 -0.092,-1.311 0.492,-1.623c0.711,-0.38 1.425,-0.754 2.142,-1.122c0.588,-0.305 1.311,-0.071 1.614,0.517c0.303,0.589 0.071,1.312 -0.517,1.615c-0.707,0.363 -1.41,0.732 -2.109,1.105c-0.18,0.096 -0.374,0.142 -0.564,0.142m155.474,3.064c-0.205,0 -0.414,-0.053 -0.604,-0.165c-0.688,-0.403 -1.379,-0.8 -2.074,-1.193c-0.576,-0.326 -0.779,-1.057 -0.454,-1.633c0.327,-0.577 1.057,-0.78 1.635,-0.455c0.705,0.399 1.406,0.803 2.104,1.212c0.572,0.334 0.764,1.069 0.43,1.64c-0.224,0.381 -0.625,0.594 -1.037,0.594m-162.78,1.087c-0.406,0 -0.802,-0.207 -1.027,-0.58c-0.343,-0.568 -0.16,-1.304 0.407,-1.646c0.689,-0.417 1.383,-0.829 2.079,-1.235c0.573,-0.333 1.307,-0.14 1.641,0.433c0.333,0.571 0.139,1.306 -0.433,1.64c-0.686,0.399 -1.369,0.804 -2.048,1.215c-0.194,0.117 -0.408,0.173 -0.619,0.173m169.94,3.363c-0.226,0 -0.455,-0.064 -0.658,-0.197c-0.665,-0.439 -1.335,-0.872 -2.007,-1.301c-0.558,-0.356 -0.722,-1.097 -0.366,-1.656c0.357,-0.559 1.098,-0.721 1.655,-0.366c0.683,0.435 1.361,0.875 2.037,1.32c0.553,0.364 0.706,1.108 0.342,1.661c-0.231,0.349 -0.613,0.539 -1.003,0.539m-177.019,1.168c-0.385,0 -0.762,-0.184 -0.994,-0.526c-0.372,-0.548 -0.229,-1.294 0.32,-1.665c0.667,-0.453 1.338,-0.9 2.012,-1.343c0.553,-0.364 1.297,-0.209 1.661,0.345c0.363,0.553 0.209,1.297 -0.344,1.66c-0.665,0.436 -1.326,0.877 -1.984,1.323c-0.206,0.14 -0.44,0.206 -0.671,0.206m183.932,3.652c-0.247,0 -0.496,-0.075 -0.71,-0.233c-0.641,-0.473 -1.286,-0.941 -1.935,-1.404c-0.538,-0.385 -0.663,-1.134 -0.279,-1.673c0.385,-0.539 1.134,-0.665 1.673,-0.279c0.659,0.471 1.314,0.945 1.964,1.425c0.533,0.393 0.647,1.144 0.254,1.677c-0.235,0.319 -0.599,0.487 -0.967,0.487m-190.767,1.249c-0.363,0 -0.722,-0.164 -0.957,-0.476c-0.4,-0.528 -0.296,-1.28 0.231,-1.68c0.643,-0.487 1.29,-0.969 1.941,-1.447c0.534,-0.392 1.285,-0.277 1.676,0.258c0.392,0.534 0.277,1.284 -0.257,1.676c-0.641,0.47 -1.278,0.945 -1.911,1.425c-0.216,0.164 -0.471,0.244 -0.723,0.244m197.415,3.927c-0.268,0 -0.537,-0.088 -0.76,-0.272c-0.615,-0.506 -1.234,-1.006 -1.858,-1.503c-0.517,-0.413 -0.603,-1.167 -0.19,-1.685c0.413,-0.519 1.166,-0.603 1.685,-0.191c0.632,0.504 1.261,1.013 1.885,1.526c0.512,0.42 0.586,1.176 0.165,1.688c-0.236,0.288 -0.581,0.437 -0.927,0.437m-203.987,1.326c-0.34,0 -0.679,-0.144 -0.917,-0.426c-0.426,-0.506 -0.363,-1.262 0.144,-1.69c0.616,-0.52 1.237,-1.035 1.862,-1.547c0.512,-0.419 1.268,-0.344 1.688,0.169c0.419,0.512 0.344,1.268 -0.169,1.687c-0.615,0.504 -1.227,1.012 -1.835,1.525c-0.225,0.19 -0.499,0.282 -0.773,0.282m210.352,4.19c-0.288,0 -0.578,-0.104 -0.808,-0.314c-0.588,-0.536 -1.18,-1.069 -1.776,-1.598c-0.495,-0.439 -0.54,-1.197 -0.1,-1.692c0.437,-0.495 1.196,-0.542 1.692,-0.102c0.604,0.536 1.205,1.077 1.802,1.622c0.488,0.446 0.523,1.205 0.076,1.694c-0.237,0.258 -0.56,0.39 -0.886,0.39m-216.639,1.404c-0.321,0 -0.639,-0.127 -0.875,-0.379c-0.454,-0.483 -0.429,-1.242 0.054,-1.695c0.589,-0.553 1.183,-1.101 1.78,-1.644c0.49,-0.445 1.248,-0.409 1.694,0.081c0.445,0.49 0.409,1.248 -0.08,1.693c-0.589,0.535 -1.173,1.075 -1.754,1.619c-0.231,0.218 -0.526,0.325 -0.819,0.325m222.704,4.437c-0.31,0 -0.62,-0.12 -0.854,-0.357c-0.559,-0.568 -1.121,-1.13 -1.688,-1.689c-0.472,-0.464 -0.478,-1.223 -0.013,-1.695c0.464,-0.473 1.223,-0.478 1.695,-0.014c0.576,0.567 1.147,1.139 1.714,1.714c0.465,0.472 0.459,1.231 -0.013,1.696c-0.233,0.23 -0.538,0.345 -0.841,0.345m-228.693,1.48c-0.299,0 -0.597,-0.111 -0.83,-0.334c-0.477,-0.459 -0.493,-1.218 -0.035,-1.695c0.56,-0.584 1.124,-1.162 1.692,-1.736c0.467,-0.471 1.226,-0.475 1.696,-0.009c0.471,0.466 0.475,1.225 0.009,1.696c-0.56,0.565 -1.116,1.135 -1.667,1.709c-0.235,0.246 -0.55,0.369 -0.865,0.369m234.441,4.668c-0.331,0 -0.66,-0.136 -0.897,-0.403c-0.528,-0.595 -1.061,-1.186 -1.598,-1.774c-0.446,-0.489 -0.412,-1.247 0.077,-1.694c0.49,-0.447 1.248,-0.411 1.694,0.077c0.544,0.596 1.085,1.195 1.621,1.799c0.44,0.496 0.394,1.253 -0.101,1.693c-0.229,0.203 -0.513,0.302 -0.796,0.302m-240.113,1.557c-0.277,0 -0.556,-0.096 -0.782,-0.291c-0.502,-0.434 -0.557,-1.191 -0.124,-1.692c0.528,-0.612 1.062,-1.219 1.599,-1.823c0.44,-0.494 1.198,-0.537 1.693,-0.097c0.494,0.44 0.539,1.198 0.098,1.693c-0.53,0.594 -1.055,1.192 -1.576,1.795c-0.237,0.275 -0.571,0.415 -0.908,0.415m245.529,4.883c-0.352,0 -0.702,-0.155 -0.938,-0.452c-0.496,-0.622 -0.996,-1.24 -1.501,-1.854c-0.421,-0.512 -0.347,-1.267 0.165,-1.688c0.511,-0.42 1.266,-0.347 1.688,0.165c0.513,0.624 1.02,1.251 1.523,1.882c0.413,0.518 0.328,1.272 -0.19,1.685c-0.221,0.176 -0.485,0.262 -0.747,0.262m-250.867,1.633c-0.257,0 -0.515,-0.082 -0.734,-0.251c-0.524,-0.406 -0.618,-1.16 -0.213,-1.683c0.496,-0.639 0.997,-1.274 1.503,-1.905c0.414,-0.518 1.169,-0.6 1.685,-0.186c0.517,0.414 0.6,1.169 0.186,1.685c-0.497,0.622 -0.99,1.248 -1.479,1.876c-0.236,0.305 -0.59,0.464 -0.948,0.464m255.937,5.079c-0.375,0 -0.743,-0.175 -0.977,-0.502c-0.462,-0.647 -0.93,-1.29 -1.401,-1.929c-0.394,-0.533 -0.28,-1.284 0.253,-1.677c0.533,-0.394 1.283,-0.279 1.677,0.253c0.479,0.649 0.953,1.302 1.422,1.958c0.385,0.539 0.26,1.288 -0.279,1.673c-0.211,0.151 -0.454,0.224 -0.695,0.224m-260.927,1.712c-0.236,0 -0.475,-0.07 -0.683,-0.215c-0.545,-0.378 -0.678,-1.126 -0.301,-1.669c0.462,-0.665 0.929,-1.325 1.4,-1.981c0.386,-0.539 1.135,-0.662 1.673,-0.276c0.538,0.386 0.662,1.135 0.276,1.673c-0.465,0.647 -0.925,1.298 -1.379,1.953c-0.234,0.335 -0.607,0.515 -0.986,0.515m265.633,5.254c-0.396,0 -0.782,-0.196 -1.011,-0.553c-0.428,-0.671 -0.86,-1.337 -1.298,-2c-0.364,-0.553 -0.211,-1.297 0.342,-1.661c0.552,-0.366 1.296,-0.212 1.66,0.341c0.444,0.673 0.883,1.349 1.317,2.029c0.356,0.558 0.193,1.3 -0.366,1.656c-0.2,0.128 -0.423,0.188 -0.644,0.188m-270.26,1.792c-0.215,0 -0.433,-0.059 -0.63,-0.181c-0.563,-0.348 -0.737,-1.087 -0.388,-1.65c0.426,-0.688 0.857,-1.373 1.294,-2.055c0.357,-0.557 1.099,-0.72 1.656,-0.362c0.558,0.358 0.721,1.099 0.363,1.657c-0.43,0.671 -0.854,1.345 -1.274,2.023c-0.227,0.366 -0.62,0.568 -1.021,0.568m274.592,5.41c-0.418,0 -0.824,-0.219 -1.044,-0.609c-0.391,-0.69 -0.788,-1.378 -1.189,-2.063c-0.335,-0.571 -0.144,-1.306 0.428,-1.641c0.57,-0.335 1.306,-0.144 1.64,0.428c0.409,0.695 0.81,1.394 1.208,2.095c0.325,0.577 0.123,1.309 -0.453,1.635c-0.187,0.105 -0.389,0.155 -0.59,0.155m-278.841,1.873c-0.196,0 -0.393,-0.047 -0.576,-0.148c-0.581,-0.318 -0.793,-1.048 -0.474,-1.628c0.389,-0.71 0.784,-1.417 1.184,-2.121c0.327,-0.575 1.058,-0.777 1.634,-0.45c0.576,0.328 0.778,1.06 0.451,1.636c-0.394,0.692 -0.783,1.389 -1.167,2.088c-0.218,0.398 -0.629,0.623 -1.052,0.623m282.786,5.544c-0.44,0 -0.864,-0.243 -1.074,-0.664c-0.355,-0.711 -0.714,-1.418 -1.078,-2.123c-0.305,-0.588 -0.075,-1.312 0.514,-1.616c0.589,-0.306 1.311,-0.074 1.616,0.514c0.37,0.715 0.734,1.434 1.094,2.154c0.296,0.593 0.054,1.313 -0.538,1.609c-0.172,0.086 -0.354,0.126 -0.534,0.126m-286.646,1.957c-0.174,0 -0.351,-0.039 -0.519,-0.119c-0.597,-0.287 -0.847,-1.004 -0.56,-1.601c0.351,-0.73 0.709,-1.457 1.071,-2.181c0.296,-0.593 1.015,-0.834 1.608,-0.536c0.593,0.296 0.833,1.016 0.536,1.608c-0.356,0.714 -0.708,1.43 -1.054,2.149c-0.207,0.43 -0.635,0.68 -1.082,0.68m290.191,5.653c-0.464,0 -0.905,-0.269 -1.101,-0.721c-0.316,-0.729 -0.637,-1.453 -0.964,-2.175c-0.272,-0.603 -0.004,-1.314 0.599,-1.586c0.604,-0.273 1.314,-0.006 1.587,0.598c0.332,0.733 0.657,1.469 0.978,2.208c0.264,0.608 -0.016,1.314 -0.623,1.578c-0.155,0.067 -0.317,0.098 -0.476,0.098m-293.647,2.046c-0.154,0 -0.311,-0.03 -0.462,-0.093c-0.61,-0.255 -0.899,-0.957 -0.644,-1.568c0.312,-0.749 0.63,-1.494 0.953,-2.238c0.265,-0.607 0.97,-0.884 1.578,-0.62c0.608,0.264 0.886,0.971 0.621,1.578c-0.318,0.732 -0.631,1.466 -0.939,2.203c-0.192,0.461 -0.638,0.738 -1.107,0.738m296.786,5.748c-0.487,0 -0.945,-0.298 -1.125,-0.781c-0.277,-0.746 -0.561,-1.49 -0.849,-2.231c-0.241,-0.617 0.065,-1.312 0.682,-1.553c0.618,-0.24 1.312,0.065 1.552,0.682c0.293,0.753 0.581,1.508 0.863,2.266c0.231,0.621 -0.085,1.311 -0.705,1.542c-0.138,0.051 -0.28,0.075 -0.418,0.075m-299.829,2.127c-0.134,0 -0.27,-0.022 -0.403,-0.07c-0.623,-0.222 -0.949,-0.908 -0.727,-1.531c0.272,-0.765 0.55,-1.527 0.834,-2.286c0.231,-0.62 0.922,-0.937 1.542,-0.704c0.621,0.232 0.936,0.922 0.704,1.543c-0.279,0.748 -0.552,1.498 -0.821,2.251c-0.175,0.491 -0.637,0.797 -1.129,0.797m302.555,5.839c-0.511,0 -0.984,-0.329 -1.144,-0.841c-0.238,-0.761 -0.482,-1.519 -0.73,-2.275c-0.208,-0.628 0.134,-1.306 0.764,-1.513c0.628,-0.207 1.306,0.135 1.513,0.763c0.252,0.768 0.499,1.536 0.741,2.308c0.198,0.632 -0.153,1.304 -0.786,1.503c-0.119,0.037 -0.239,0.055 -0.358,0.055m-305.173,2.183c-0.113,0 -0.228,-0.017 -0.342,-0.051c-0.634,-0.188 -0.996,-0.856 -0.807,-1.49c0.23,-0.776 0.466,-1.549 0.708,-2.32c0.198,-0.631 0.871,-0.982 1.503,-0.784c0.631,0.198 0.984,0.872 0.784,1.503c-0.238,0.759 -0.47,1.52 -0.697,2.283c-0.154,0.521 -0.631,0.859 -1.149,0.859m307.471,5.916c-0.534,0 -1.022,-0.361 -1.161,-0.903c-0.197,-0.772 -0.399,-1.541 -0.607,-2.308c-0.175,-0.64 0.203,-1.298 0.842,-1.472c0.64,-0.173 1.297,0.204 1.472,0.842c0.211,0.78 0.417,1.561 0.617,2.345c0.164,0.641 -0.224,1.295 -0.865,1.458c-0.099,0.026 -0.199,0.038 -0.298,0.038m-309.653,2.215c-0.092,0 -0.187,-0.011 -0.28,-0.034c-0.645,-0.154 -1.041,-0.802 -0.886,-1.445c0.188,-0.787 0.383,-1.571 0.583,-2.354c0.164,-0.641 0.817,-1.027 1.459,-0.864c0.642,0.165 1.028,0.818 0.865,1.46c-0.198,0.77 -0.389,1.542 -0.575,2.317c-0.133,0.55 -0.624,0.92 -1.166,0.92m311.519,5.995c-0.561,0 -1.061,-0.395 -1.175,-0.965c-0.156,-0.782 -0.317,-1.561 -0.485,-2.338c-0.139,-0.647 0.273,-1.285 0.92,-1.425c0.644,-0.141 1.285,0.272 1.425,0.92c0.169,0.789 0.333,1.58 0.492,2.374c0.129,0.65 -0.293,1.281 -0.942,1.411c-0.079,0.015 -0.159,0.023 -0.235,0.023m-313.265,2.241c-0.073,0 -0.146,-0.007 -0.219,-0.021c-0.652,-0.12 -1.082,-0.745 -0.962,-1.396c0.147,-0.796 0.3,-1.589 0.458,-2.38c0.13,-0.65 0.759,-1.072 1.411,-0.941c0.65,0.13 1.071,0.762 0.94,1.411c-0.155,0.78 -0.306,1.562 -0.45,2.345c-0.107,0.578 -0.612,0.982 -1.178,0.982m314.692,6.056c-0.586,0 -1.099,-0.431 -1.185,-1.028c-0.113,-0.789 -0.235,-1.575 -0.36,-2.36c-0.105,-0.654 0.339,-1.269 0.994,-1.374c0.661,-0.108 1.269,0.341 1.373,0.993c0.129,0.798 0.251,1.597 0.366,2.398c0.095,0.655 -0.36,1.263 -1.015,1.358c-0.058,0.008 -0.115,0.013 -0.173,0.013m-316.001,2.261c-0.051,0 -0.104,-0.004 -0.157,-0.011c-0.656,-0.085 -1.119,-0.688 -1.034,-1.344c0.106,-0.802 0.216,-1.602 0.332,-2.401c0.095,-0.655 0.701,-1.11 1.359,-1.014c0.656,0.095 1.11,0.704 1.014,1.359c-0.114,0.787 -0.223,1.576 -0.327,2.366c-0.078,0.604 -0.594,1.045 -1.187,1.045m316.989,6.099c-0.613,0 -1.136,-0.468 -1.193,-1.09c-0.073,-0.794 -0.152,-1.586 -0.235,-2.377c-0.07,-0.658 0.406,-1.248 1.065,-1.319c0.668,-0.07 1.249,0.407 1.319,1.066c0.086,0.802 0.165,1.605 0.24,2.412c0.059,0.659 -0.427,1.243 -1.086,1.303c-0.037,0.003 -0.074,0.005 -0.11,0.005m-317.857,2.274c-0.031,0 -0.062,-0.001 -0.094,-0.003c-0.66,-0.051 -1.154,-0.628 -1.103,-1.288c0.062,-0.807 0.13,-1.613 0.205,-2.415c0.061,-0.66 0.646,-1.14 1.304,-1.084c0.66,0.061 1.145,0.645 1.084,1.304c-0.074,0.791 -0.141,1.585 -0.202,2.379c-0.049,0.629 -0.574,1.107 -1.194,1.107m318.405,6.127c-0.641,0 -1.173,-0.506 -1.197,-1.153c-0.031,-0.796 -0.068,-1.591 -0.111,-2.384c-0.036,-0.661 0.471,-1.227 1.132,-1.263c0.656,-0.034 1.227,0.471 1.262,1.133c0.044,0.805 0.082,1.613 0.113,2.422c0.026,0.662 -0.49,1.219 -1.152,1.244c-0.016,0.001 -0.031,0.001 -0.047,0.001m-318.834,2.281l-0.031,0c-0.662,-0.017 -1.185,-0.567 -1.169,-1.229c0.021,-0.808 0.047,-1.616 0.078,-2.422c0.027,-0.662 0.584,-1.171 1.247,-1.151c0.661,0.027 1.177,0.584 1.15,1.246c-0.032,0.794 -0.057,1.59 -0.077,2.387c-0.016,0.651 -0.55,1.169 -1.198,1.169m318.941,6.443l-0.019,0c-0.662,-0.01 -1.191,-0.555 -1.181,-1.217c0.011,-0.794 0.017,-1.59 0.017,-2.388l0,-0.305c0,-0.663 0.537,-1.2 1.2,-1.2c0.662,0 1.198,0.537 1.198,1.2l0,0.305c0,0.809 -0.005,1.617 -0.017,2.423c-0.01,0.657 -0.544,1.182 -1.198,1.182m-318.934,1.973c-0.647,0 -1.18,-0.515 -1.198,-1.166c-0.022,-0.805 -0.037,-1.613 -0.047,-2.421c-0.007,-0.662 0.523,-1.205 1.185,-1.213l0.015,0c0.655,0 1.191,0.527 1.198,1.186c0.01,0.796 0.025,1.59 0.047,2.383c0.018,0.662 -0.504,1.213 -1.167,1.231c-0.011,0 -0.022,0 -0.033,0m318.591,6.439c-0.028,0 -0.055,-0.001 -0.083,-0.003c-0.66,-0.044 -1.159,-0.616 -1.115,-1.277c0.053,-0.793 0.101,-1.588 0.142,-2.383c0.034,-0.661 0.6,-1.176 1.259,-1.135c0.662,0.034 1.169,0.597 1.135,1.259c-0.041,0.809 -0.089,1.615 -0.144,2.421c-0.043,0.632 -0.569,1.118 -1.194,1.118m-318.145,1.97c-0.619,0 -1.145,-0.477 -1.194,-1.105c-0.064,-0.804 -0.122,-1.609 -0.174,-2.417c-0.043,-0.661 0.459,-1.232 1.119,-1.274c0.663,-0.041 1.232,0.458 1.274,1.119c0.052,0.797 0.109,1.591 0.171,2.382c0.053,0.661 -0.44,1.239 -1.1,1.291c-0.032,0.002 -0.064,0.004 -0.096,0.004m317.362,6.412c-0.048,0 -0.096,-0.003 -0.144,-0.009c-0.658,-0.079 -1.127,-0.675 -1.048,-1.333c0.095,-0.79 0.184,-1.58 0.266,-2.373c0.069,-0.658 0.649,-1.134 1.319,-1.068c0.657,0.07 1.136,0.66 1.067,1.319c-0.084,0.804 -0.175,1.607 -0.271,2.408c-0.073,0.609 -0.591,1.056 -1.189,1.056m-316.476,1.959c-0.593,0 -1.108,-0.438 -1.188,-1.041c-0.105,-0.8 -0.206,-1.602 -0.299,-2.405c-0.078,-0.658 0.393,-1.254 1.051,-1.33c0.654,-0.082 1.254,0.393 1.33,1.051c0.093,0.792 0.192,1.581 0.296,2.369c0.087,0.657 -0.375,1.26 -1.031,1.346c-0.054,0.007 -0.107,0.01 -0.159,0.01m315.252,6.371c-0.068,0 -0.137,-0.006 -0.206,-0.018c-0.653,-0.113 -1.089,-0.734 -0.976,-1.386c0.136,-0.785 0.266,-1.569 0.391,-2.357c0.104,-0.654 0.72,-1.098 1.373,-0.996c0.653,0.104 1.1,0.718 0.996,1.372c-0.126,0.799 -0.259,1.596 -0.397,2.391c-0.101,0.583 -0.608,0.994 -1.181,0.994m-313.926,1.944c-0.566,0 -1.069,-0.403 -1.177,-0.98c-0.148,-0.794 -0.29,-1.588 -0.427,-2.386c-0.112,-0.653 0.327,-1.273 0.98,-1.385c0.65,-0.111 1.272,0.327 1.384,0.98c0.134,0.786 0.275,1.57 0.421,2.351c0.121,0.651 -0.308,1.278 -0.959,1.398c-0.075,0.015 -0.149,0.022 -0.222,0.022m312.264,6.309c-0.089,0 -0.179,-0.009 -0.269,-0.031c-0.645,-0.148 -1.049,-0.791 -0.901,-1.436c0.178,-0.775 0.35,-1.551 0.516,-2.331c0.138,-0.648 0.776,-1.064 1.423,-0.923c0.647,0.139 1.061,0.776 0.923,1.423c-0.169,0.791 -0.344,1.581 -0.524,2.367c-0.128,0.555 -0.621,0.931 -1.168,0.931m-310.498,1.922c-0.54,0 -1.031,-0.367 -1.165,-0.916c-0.19,-0.785 -0.374,-1.573 -0.553,-2.361c-0.146,-0.646 0.26,-1.288 0.905,-1.434c0.643,-0.145 1.288,0.259 1.434,0.905c0.176,0.777 0.358,1.552 0.545,2.324c0.156,0.644 -0.239,1.293 -0.882,1.449c-0.095,0.023 -0.191,0.033 -0.284,0.033m308.399,6.232c-0.108,0 -0.22,-0.015 -0.33,-0.046c-0.636,-0.183 -1.006,-0.846 -0.824,-1.483c0.219,-0.764 0.432,-1.531 0.64,-2.301c0.172,-0.639 0.83,-1.02 1.47,-0.846c0.639,0.173 1.018,0.83 0.845,1.47c-0.21,0.781 -0.427,1.56 -0.649,2.336c-0.15,0.527 -0.63,0.87 -1.152,0.87m-306.199,1.896c-0.516,0 -0.993,-0.336 -1.148,-0.857c-0.231,-0.772 -0.457,-1.548 -0.677,-2.326c-0.181,-0.637 0.189,-1.3 0.826,-1.481c0.639,-0.178 1.301,0.191 1.481,0.828c0.217,0.766 0.44,1.53 0.668,2.292c0.19,0.635 -0.171,1.303 -0.805,1.493c-0.115,0.034 -0.231,0.051 -0.345,0.051m303.666,6.144c-0.129,0 -0.261,-0.022 -0.391,-0.066c-0.626,-0.216 -0.958,-0.899 -0.742,-1.525c0.26,-0.754 0.514,-1.512 0.763,-2.272c0.206,-0.628 0.881,-0.974 1.512,-0.766c0.63,0.206 0.973,0.883 0.767,1.512c-0.253,0.772 -0.511,1.542 -0.775,2.308c-0.171,0.497 -0.636,0.809 -1.134,0.809m-301.036,1.853c-0.492,0 -0.953,-0.305 -1.129,-0.795c-0.273,-0.759 -0.539,-1.522 -0.801,-2.288c-0.214,-0.627 0.122,-1.308 0.748,-1.522c0.627,-0.215 1.308,0.121 1.522,0.748c0.257,0.754 0.52,1.505 0.789,2.253c0.223,0.623 -0.101,1.31 -0.724,1.534c-0.134,0.048 -0.271,0.07 -0.405,0.07m298.073,6.054c-0.149,0 -0.302,-0.029 -0.449,-0.089c-0.614,-0.248 -0.91,-0.947 -0.661,-1.561c0.3,-0.74 0.594,-1.482 0.882,-2.227c0.241,-0.619 0.938,-0.924 1.552,-0.685c0.618,0.239 0.924,0.934 0.685,1.552c-0.293,0.756 -0.592,1.51 -0.896,2.26c-0.19,0.467 -0.638,0.75 -1.113,0.75m-295.026,1.784c-0.469,0 -0.913,-0.276 -1.106,-0.735c-0.311,-0.741 -0.617,-1.486 -0.917,-2.233c-0.247,-0.614 0.051,-1.313 0.665,-1.56c0.614,-0.247 1.313,0.051 1.56,0.666c0.296,0.735 0.597,1.469 0.903,2.199c0.257,0.61 -0.03,1.313 -0.642,1.569c-0.151,0.064 -0.308,0.094 -0.463,0.094m291.649,5.95c-0.171,0 -0.344,-0.037 -0.509,-0.114c-0.599,-0.281 -0.857,-0.996 -0.576,-1.595c0.339,-0.722 0.672,-1.447 0.999,-2.175c0.272,-0.604 0.982,-0.872 1.586,-0.602c0.604,0.273 0.873,0.982 0.602,1.587c-0.333,0.738 -0.671,1.475 -1.016,2.208c-0.203,0.435 -0.636,0.691 -1.086,0.691m-288.196,1.703c-0.446,0 -0.874,-0.25 -1.081,-0.677c-0.35,-0.724 -0.695,-1.452 -1.035,-2.183c-0.279,-0.6 -0.018,-1.313 0.582,-1.592c0.601,-0.28 1.314,-0.02 1.593,0.582c0.335,0.719 0.674,1.436 1.019,2.15c0.288,0.595 0.039,1.312 -0.558,1.601c-0.168,0.081 -0.346,0.119 -0.52,0.119m284.413,5.838c-0.19,0 -0.384,-0.046 -0.564,-0.142c-0.583,-0.312 -0.804,-1.039 -0.492,-1.623c0.376,-0.703 0.748,-1.409 1.114,-2.119c0.304,-0.589 1.027,-0.82 1.615,-0.516c0.589,0.304 0.82,1.028 0.516,1.616c-0.372,0.719 -0.749,1.436 -1.13,2.15c-0.216,0.404 -0.63,0.634 -1.059,0.634m-280.56,1.625c-0.423,0 -0.833,-0.223 -1.051,-0.621c-0.388,-0.705 -0.771,-1.414 -1.15,-2.126c-0.31,-0.584 -0.088,-1.311 0.497,-1.621c0.586,-0.31 1.311,-0.087 1.621,0.496c0.373,0.703 0.75,1.4 1.133,2.096c0.319,0.58 0.107,1.308 -0.473,1.628c-0.183,0.101 -0.381,0.148 -0.577,0.148m276.386,5.7c-0.212,0 -0.426,-0.054 -0.62,-0.172c-0.566,-0.343 -0.748,-1.081 -0.404,-1.647c0.412,-0.682 0.82,-1.367 1.222,-2.055c0.336,-0.571 1.07,-0.764 1.641,-0.43c0.571,0.334 0.764,1.069 0.43,1.64c-0.409,0.699 -0.824,1.395 -1.242,2.087c-0.226,0.372 -0.622,0.577 -1.027,0.577m-272.142,1.554c-0.401,0 -0.792,-0.201 -1.019,-0.567c-0.426,-0.685 -0.846,-1.373 -1.261,-2.063c-0.341,-0.569 -0.157,-1.305 0.411,-1.646c0.568,-0.34 1.304,-0.157 1.645,0.411c0.409,0.681 0.823,1.358 1.242,2.033c0.35,0.562 0.177,1.302 -0.386,1.651c-0.197,0.123 -0.415,0.181 -0.632,0.181m267.588,5.541c-0.232,0 -0.467,-0.067 -0.673,-0.207c-0.548,-0.373 -0.69,-1.119 -0.317,-1.667c0.448,-0.658 0.891,-1.32 1.329,-1.987c0.365,-0.552 1.107,-0.706 1.661,-0.342c0.554,0.364 0.707,1.108 0.342,1.66c-0.445,0.676 -0.895,1.349 -1.349,2.018c-0.233,0.341 -0.609,0.525 -0.993,0.525m-262.966,1.481c-0.379,0 -0.752,-0.179 -0.985,-0.514c-0.461,-0.661 -0.917,-1.327 -1.368,-1.996c-0.37,-0.549 -0.225,-1.294 0.324,-1.665c0.549,-0.37 1.294,-0.224 1.665,0.325c0.444,0.659 0.893,1.314 1.347,1.965c0.379,0.545 0.245,1.291 -0.298,1.67c-0.209,0.145 -0.448,0.215 -0.685,0.215m258.045,5.36c-0.253,0 -0.507,-0.08 -0.724,-0.245c-0.528,-0.401 -0.63,-1.153 -0.229,-1.68c0.483,-0.634 0.959,-1.272 1.432,-1.913c0.392,-0.532 1.143,-0.647 1.676,-0.255c0.533,0.394 0.648,1.144 0.255,1.677c-0.48,0.651 -0.965,1.299 -1.454,1.943c-0.236,0.31 -0.594,0.473 -0.956,0.473m-253.058,1.413c-0.357,0 -0.711,-0.16 -0.948,-0.464c-0.494,-0.636 -0.984,-1.277 -1.471,-1.922c-0.399,-0.528 -0.293,-1.28 0.236,-1.679c0.529,-0.399 1.28,-0.294 1.679,0.236c0.479,0.635 0.962,1.266 1.45,1.894c0.407,0.522 0.312,1.276 -0.21,1.682c-0.22,0.17 -0.479,0.253 -0.736,0.253m247.788,5.158c-0.274,0 -0.549,-0.093 -0.774,-0.284c-0.506,-0.427 -0.569,-1.183 -0.141,-1.69c0.514,-0.608 1.024,-1.22 1.53,-1.835c0.42,-0.513 1.177,-0.586 1.687,-0.166c0.512,0.421 0.586,1.177 0.165,1.688c-0.512,0.625 -1.029,1.245 -1.552,1.862c-0.237,0.281 -0.575,0.425 -0.915,0.425m-242.45,1.346c-0.337,0 -0.671,-0.141 -0.908,-0.415c-0.528,-0.61 -1.052,-1.225 -1.571,-1.842c-0.426,-0.507 -0.36,-1.263 0.147,-1.69c0.507,-0.426 1.263,-0.36 1.689,0.147c0.512,0.609 1.028,1.214 1.549,1.816c0.433,0.5 0.378,1.258 -0.123,1.691c-0.226,0.197 -0.506,0.293 -0.783,0.293m236.842,4.937c-0.294,0 -0.589,-0.108 -0.821,-0.326c-0.482,-0.454 -0.505,-1.213 -0.052,-1.695c0.545,-0.58 1.086,-1.163 1.624,-1.752c0.446,-0.488 1.204,-0.523 1.694,-0.077c0.489,0.446 0.523,1.205 0.076,1.694c-0.544,0.597 -1.093,1.19 -1.647,1.778c-0.235,0.251 -0.554,0.378 -0.874,0.378m-231.171,1.28c-0.314,0 -0.628,-0.123 -0.864,-0.368c-0.559,-0.582 -1.114,-1.168 -1.666,-1.758c-0.452,-0.485 -0.426,-1.244 0.059,-1.695c0.483,-0.453 1.241,-0.427 1.694,0.057c0.543,0.582 1.091,1.16 1.643,1.734c0.458,0.477 0.443,1.236 -0.034,1.695c-0.233,0.223 -0.533,0.335 -0.832,0.335m225.244,4.698c-0.315,0 -0.631,-0.124 -0.866,-0.37c-0.458,-0.479 -0.441,-1.237 0.037,-1.695c0.575,-0.551 1.146,-1.105 1.712,-1.664c0.472,-0.465 1.231,-0.459 1.696,0.012c0.465,0.472 0.459,1.232 -0.012,1.696c-0.575,0.567 -1.154,1.129 -1.738,1.688c-0.231,0.222 -0.53,0.333 -0.829,0.333m-219.251,1.214c-0.293,0 -0.587,-0.107 -0.819,-0.324c-0.589,-0.552 -1.175,-1.108 -1.757,-1.669c-0.476,-0.461 -0.49,-1.22 -0.03,-1.696c0.459,-0.478 1.219,-0.489 1.695,-0.03c0.573,0.552 1.15,1.101 1.731,1.645c0.484,0.452 0.509,1.212 0.056,1.695c-0.236,0.252 -0.555,0.379 -0.876,0.379m213.021,4.444c-0.337,0 -0.672,-0.141 -0.91,-0.417c-0.431,-0.502 -0.375,-1.259 0.127,-1.691c0.603,-0.519 1.201,-1.042 1.796,-1.571c0.495,-0.44 1.253,-0.393 1.693,0.101c0.439,0.495 0.394,1.253 -0.101,1.693c-0.604,0.536 -1.212,1.067 -1.824,1.594c-0.226,0.195 -0.504,0.291 -0.781,0.291m-206.724,1.148c-0.272,0 -0.547,-0.092 -0.771,-0.282c-0.618,-0.52 -1.233,-1.045 -1.843,-1.574c-0.5,-0.434 -0.554,-1.191 -0.121,-1.692c0.434,-0.501 1.192,-0.553 1.692,-0.121c0.601,0.522 1.207,1.04 1.816,1.554c0.507,0.426 0.572,1.183 0.145,1.689c-0.237,0.281 -0.576,0.426 -0.918,0.426m200.207,4.173c-0.358,0 -0.712,-0.16 -0.948,-0.465c-0.406,-0.524 -0.31,-1.277 0.213,-1.682c0.629,-0.488 1.255,-0.979 1.876,-1.474c0.518,-0.413 1.271,-0.329 1.686,0.189c0.413,0.518 0.327,1.271 -0.19,1.685c-0.63,0.503 -1.265,1.001 -1.903,1.496c-0.218,0.169 -0.477,0.251 -0.734,0.251m-193.623,1.083c-0.252,0 -0.506,-0.079 -0.723,-0.243c-0.644,-0.488 -1.285,-0.98 -1.923,-1.477c-0.522,-0.408 -0.616,-1.161 -0.208,-1.683c0.406,-0.522 1.161,-0.617 1.683,-0.209c0.628,0.491 1.26,0.976 1.895,1.457c0.528,0.399 0.633,1.15 0.233,1.679c-0.235,0.312 -0.594,0.476 -0.957,0.476m186.839,3.886c-0.38,0 -0.753,-0.179 -0.986,-0.515c-0.377,-0.545 -0.242,-1.292 0.302,-1.669c0.654,-0.453 1.303,-0.911 1.95,-1.373c0.538,-0.386 1.287,-0.261 1.673,0.278c0.385,0.538 0.26,1.288 -0.278,1.673c-0.656,0.469 -1.316,0.933 -1.979,1.393c-0.209,0.144 -0.447,0.213 -0.682,0.213m-179.986,1.017c-0.231,0 -0.464,-0.066 -0.67,-0.205c-0.67,-0.453 -1.337,-0.912 -2,-1.375c-0.543,-0.379 -0.676,-1.126 -0.297,-1.67c0.379,-0.542 1.126,-0.675 1.67,-0.296c0.653,0.456 1.309,0.908 1.97,1.354c0.549,0.37 0.693,1.116 0.322,1.665c-0.232,0.343 -0.61,0.527 -0.995,0.527m172.953,3.588c-0.402,0 -0.795,-0.202 -1.021,-0.569c-0.349,-0.563 -0.175,-1.301 0.389,-1.65c0.676,-0.418 1.349,-0.841 2.017,-1.268c0.56,-0.355 1.301,-0.192 1.657,0.365c0.356,0.559 0.192,1.3 -0.366,1.657c-0.679,0.433 -1.362,0.862 -2.048,1.286c-0.196,0.121 -0.414,0.179 -0.628,0.179m-165.848,0.949c-0.21,0 -0.423,-0.054 -0.617,-0.171c-0.694,-0.418 -1.384,-0.84 -2.07,-1.268c-0.563,-0.35 -0.735,-1.09 -0.384,-1.651c0.35,-0.563 1.09,-0.734 1.651,-0.384c0.677,0.421 1.357,0.837 2.04,1.248c0.567,0.342 0.75,1.079 0.409,1.646c-0.225,0.374 -0.622,0.58 -1.029,0.58m158.585,3.277c-0.424,0 -0.836,-0.225 -1.053,-0.623c-0.319,-0.58 -0.106,-1.309 0.475,-1.627c0.697,-0.382 1.391,-0.769 2.081,-1.16c0.575,-0.327 1.308,-0.124 1.634,0.452c0.327,0.577 0.125,1.308 -0.452,1.635c-0.7,0.397 -1.404,0.789 -2.111,1.176c-0.183,0.1 -0.38,0.147 -0.574,0.147m-151.247,0.88c-0.19,0 -0.383,-0.045 -0.562,-0.14c-0.715,-0.381 -1.427,-0.767 -2.135,-1.157c-0.58,-0.319 -0.791,-1.049 -0.471,-1.629c0.319,-0.58 1.048,-0.79 1.628,-0.472c0.698,0.385 1.4,0.765 2.104,1.14c0.585,0.311 0.807,1.037 0.496,1.622c-0.216,0.405 -0.631,0.636 -1.06,0.636m143.773,2.955c-0.446,0 -0.875,-0.251 -1.081,-0.68c-0.287,-0.597 -0.036,-1.314 0.561,-1.6c0.716,-0.345 1.429,-0.693 2.138,-1.047c0.592,-0.295 1.313,-0.055 1.608,0.537c0.296,0.593 0.055,1.313 -0.537,1.609c-0.721,0.359 -1.444,0.713 -2.17,1.062c-0.168,0.08 -0.345,0.119 -0.519,0.119m-136.222,0.809c-0.17,0 -0.341,-0.036 -0.505,-0.113c-0.735,-0.342 -1.467,-0.69 -2.196,-1.043c-0.596,-0.289 -0.845,-1.006 -0.556,-1.602c0.29,-0.596 1.007,-0.843 1.602,-0.556c0.718,0.349 1.438,0.69 2.162,1.027c0.6,0.28 0.861,0.993 0.581,1.593c-0.203,0.436 -0.636,0.694 -1.088,0.694m128.562,2.624c-0.471,0 -0.916,-0.278 -1.108,-0.738c-0.255,-0.611 0.034,-1.313 0.645,-1.569c0.732,-0.305 1.462,-0.615 2.19,-0.932c0.606,-0.263 1.314,0.016 1.577,0.624c0.264,0.607 -0.016,1.313 -0.623,1.577c-0.737,0.32 -1.477,0.635 -2.221,0.945c-0.15,0.063 -0.307,0.093 -0.46,0.093m-120.818,0.734c-0.149,0 -0.3,-0.028 -0.447,-0.087c-0.753,-0.303 -1.503,-0.611 -2.25,-0.925c-0.61,-0.257 -0.897,-0.96 -0.641,-1.57c0.257,-0.611 0.959,-0.897 1.571,-0.641c0.735,0.309 1.474,0.613 2.214,0.911c0.615,0.247 0.913,0.946 0.665,1.56c-0.187,0.467 -0.637,0.752 -1.112,0.752m112.979,2.291c-0.494,0 -0.956,-0.307 -1.13,-0.798c-0.222,-0.624 0.104,-1.31 0.727,-1.532c0.751,-0.267 1.5,-0.539 2.245,-0.818c0.617,-0.231 1.311,0.084 1.542,0.705c0.231,0.621 -0.085,1.311 -0.705,1.543c-0.756,0.282 -1.515,0.559 -2.277,0.83c-0.133,0.047 -0.269,0.07 -0.402,0.07m-105.063,0.651c-0.129,0 -0.26,-0.021 -0.388,-0.065c-0.769,-0.262 -1.534,-0.53 -2.297,-0.804c-0.624,-0.223 -0.947,-0.91 -0.723,-1.534c0.223,-0.623 0.91,-0.947 1.533,-0.723c0.752,0.269 1.505,0.533 2.262,0.792c0.626,0.214 0.962,0.896 0.747,1.522c-0.17,0.498 -0.636,0.812 -1.134,0.812m97.058,1.958c-0.518,0 -0.994,-0.337 -1.149,-0.859c-0.189,-0.634 0.173,-1.302 0.808,-1.49c0.763,-0.227 1.525,-0.459 2.284,-0.697c0.632,-0.197 1.304,0.154 1.502,0.786c0.198,0.632 -0.154,1.304 -0.786,1.502c-0.77,0.242 -1.542,0.478 -2.318,0.708c-0.114,0.034 -0.228,0.05 -0.341,0.05m-89.021,0.552c-0.108,0 -0.219,-0.015 -0.328,-0.046c-0.778,-0.221 -1.554,-0.447 -2.327,-0.679c-0.634,-0.19 -0.994,-0.858 -0.804,-1.493c0.19,-0.634 0.86,-0.994 1.493,-0.804c0.762,0.228 1.525,0.451 2.292,0.668c0.638,0.181 1.007,0.844 0.827,1.482c-0.15,0.527 -0.63,0.872 -1.153,0.872m80.887,1.628c-0.542,0 -1.032,-0.37 -1.164,-0.919c-0.155,-0.644 0.242,-1.291 0.886,-1.446c0.774,-0.186 1.547,-0.378 2.318,-0.575c0.644,-0.166 1.295,0.224 1.459,0.865c0.163,0.642 -0.223,1.294 -0.865,1.458c-0.781,0.2 -1.566,0.395 -2.353,0.584c-0.094,0.023 -0.187,0.033 -0.281,0.033m-72.728,0.449c-0.088,0 -0.177,-0.009 -0.266,-0.03c-0.79,-0.178 -1.576,-0.363 -2.36,-0.554c-0.644,-0.156 -1.038,-0.805 -0.883,-1.448c0.157,-0.644 0.804,-1.041 1.448,-0.882c0.773,0.187 1.548,0.37 2.325,0.546c0.645,0.146 1.051,0.788 0.904,1.434c-0.126,0.557 -0.62,0.934 -1.168,0.934m64.493,1.296c-0.568,0 -1.072,-0.403 -1.179,-0.982c-0.119,-0.651 0.311,-1.276 0.962,-1.396c0.783,-0.145 1.566,-0.295 2.346,-0.451c0.646,-0.13 1.281,0.291 1.41,0.942c0.13,0.649 -0.292,1.28 -0.941,1.41c-0.791,0.158 -1.584,0.31 -2.379,0.457c-0.074,0.013 -0.147,0.02 -0.219,0.02m-56.235,0.347c-0.067,0 -0.135,-0.006 -0.205,-0.018c-0.797,-0.137 -1.592,-0.279 -2.385,-0.428c-0.651,-0.121 -1.08,-0.747 -0.958,-1.398c0.121,-0.652 0.751,-1.081 1.398,-0.959c0.782,0.146 1.566,0.287 2.351,0.421c0.653,0.112 1.091,0.732 0.979,1.385c-0.1,0.584 -0.607,0.997 -1.18,0.997m47.917,0.959c-0.593,0 -1.109,-0.44 -1.187,-1.044c-0.086,-0.657 0.377,-1.258 1.034,-1.345c0.79,-0.102 1.578,-0.21 2.366,-0.325c0.657,-0.092 1.263,0.358 1.359,1.013c0.096,0.656 -0.359,1.265 -1.014,1.36c-0.799,0.116 -1.599,0.227 -2.402,0.331c-0.052,0.007 -0.105,0.01 -0.156,0.01m-39.585,0.243c-0.046,0 -0.093,-0.003 -0.141,-0.008c-0.803,-0.094 -1.605,-0.195 -2.405,-0.301c-0.656,-0.087 -1.118,-0.69 -1.031,-1.346c0.087,-0.657 0.686,-1.12 1.346,-1.031c0.789,0.104 1.579,0.203 2.37,0.296c0.658,0.077 1.128,0.673 1.051,1.331c-0.072,0.61 -0.59,1.059 -1.19,1.059m31.211,0.623c-0.62,0 -1.145,-0.477 -1.194,-1.107c-0.051,-0.66 0.442,-1.237 1.103,-1.287c0.795,-0.062 1.589,-0.129 2.38,-0.202c0.662,-0.059 1.245,0.425 1.304,1.085c0.061,0.659 -0.425,1.243 -1.085,1.303c-0.802,0.074 -1.607,0.142 -2.414,0.205c-0.032,0.002 -0.063,0.003 -0.094,0.003m-22.826,0.139c-0.026,0 -0.052,0 -0.079,-0.002c-0.808,-0.052 -1.613,-0.11 -2.418,-0.175c-0.66,-0.052 -1.153,-0.63 -1.099,-1.29c0.052,-0.66 0.628,-1.145 1.291,-1.1c0.791,0.063 1.585,0.12 2.38,0.172c0.661,0.042 1.163,0.613 1.12,1.273c-0.041,0.634 -0.569,1.122 -1.195,1.122m14.426,0.287c-0.649,0 -1.184,-0.518 -1.199,-1.171c-0.016,-0.662 0.509,-1.211 1.171,-1.227c0.794,-0.019 1.586,-0.045 2.379,-0.076c0.679,-0.033 1.219,0.488 1.245,1.15c0.027,0.662 -0.488,1.22 -1.15,1.246c-0.804,0.032 -1.61,0.058 -2.417,0.077c-0.01,0.001 -0.019,0.001 -0.029,0.001m-6.015,0.037l-0.01,0c-0.814,-0.011 -1.622,-0.027 -2.428,-0.048c-0.662,-0.018 -1.184,-0.569 -1.166,-1.231c0.018,-0.662 0.578,-1.189 1.231,-1.166c0.794,0.021 1.59,0.036 2.388,0.046c0.662,0.009 1.192,0.552 1.184,1.214c-0.008,0.658 -0.544,1.185 -1.199,1.185" style="fill:#fff;fill-rule:nonzero;"/></g></svg>