<?xml version="1.0" encoding="UTF-8" standalone="no"?><!DOCTYPE svg PUBLIC "-//W3C//DTD SVG 1.1//EN" "http://www.w3.org/Graphics/SVG/1.1/DTD/svg11.dtd"><svg width="100%" height="100%" viewBox="0 0 105 105" version="1.1" xmlns="http://www.w3.org/2000/svg" xmlns:xlink="http://www.w3.org/1999/xlink" xml:space="preserve" xmlns:serif="http://www.serif.com/" style="fill-rule:evenodd;clip-rule:evenodd;stroke-linejoin:round;stroke-miterlimit:1.41421;"><g><path d="M72.758,44.797c-0.722,-1.432 -1.859,-2.622 -3.25,-3.411c-0.466,-2.88 -2.963,-5.08 -5.974,-5.08c-2.634,0 -4.874,1.685 -5.706,4.034l-1.528,0c0,1.574 -1.275,2.851 -2.85,2.851c-1.575,0 -2.851,-1.277 -2.851,-2.851l-1.529,0c-0.83,-2.349 -3.071,-4.034 -5.706,-4.034c-3.01,0 -5.507,2.2 -5.972,5.08c-1.391,0.789 -2.528,1.979 -3.251,3.411c-5.145,1.395 -8.93,6.094 -8.93,11.679c0,6.685 5.419,12.103 12.103,12.103c5.268,0 9.749,-3.369 11.41,-8.068l9.451,0c1.661,4.699 6.143,8.068 11.41,8.068c6.684,0 12.102,-5.418 12.102,-12.103c0,-5.585 -3.784,-10.284 -8.929,-11.679" style="fill:#242c3c;fill-rule:nonzero;"/><path d="M104.883,52.442c0,28.964 -23.479,52.443 -52.442,52.443c-28.963,0 -52.441,-23.479 -52.441,-52.443c0,-28.963 23.478,-52.442 52.441,-52.442c28.963,0 52.442,23.479 52.442,52.442" style="fill:#6dbec4;fill-rule:nonzero;"/><path d="M69.507,41.386c-0.464,-2.88 -2.961,-5.08 -5.973,-5.08c-2.635,0 -4.874,1.685 -5.705,4.034l7.722,0c1.436,0 2.785,0.382 3.956,1.046" style="fill:#242c3c;fill-rule:nonzero;"/><path d="M49.07,40.34c-0.83,-2.349 -3.072,-4.034 -5.705,-4.034c-3.011,0 -5.508,2.2 -5.973,5.08c1.172,-0.664 2.521,-1.046 3.955,-1.046l7.723,0Z" style="fill:#242c3c;fill-rule:nonzero;"/><path d="M48.724,52.442l9.451,0c1.661,-4.699 6.143,-8.068 11.41,-8.068c1.1,0 2.162,0.15 3.173,0.423c-0.722,-1.432 -1.859,-2.622 -3.25,-3.412c-1.172,-0.662 -2.522,-1.045 -3.957,-1.045l-7.723,0l-1.528,0c0,1.574 -1.275,2.851 -2.85,2.851c-1.575,0 -2.851,-1.277 -2.851,-2.851l-1.529,0l-7.723,0c-1.434,0 -2.783,0.383 -3.955,1.045c-1.391,0.79 -2.528,1.98 -3.251,3.412c1.011,-0.273 2.075,-0.423 3.173,-0.423c5.268,0 9.749,3.369 11.41,8.068" style="fill:#2b3a49;fill-rule:nonzero;"/><path d="M58.175,52.442l-9.45,0c0.446,1.263 0.691,2.62 0.691,4.035c0,1.414 -0.245,2.772 -0.691,4.034l9.45,0c-0.447,-1.262 -0.692,-2.62 -0.692,-4.034c0,-1.415 0.245,-2.772 0.692,-4.035" style="fill:#242c3c;fill-rule:nonzero;"/><path d="M37.313,64.545c-4.455,0 -8.068,-3.613 -8.068,-8.069c0,-4.455 3.613,-8.068 8.068,-8.068c4.457,0 8.068,3.613 8.068,8.068c0,4.456 -3.611,8.069 -8.068,8.069m0,-18.154c-5.56,0 -10.085,4.524 -10.085,10.085c0,5.561 4.525,10.086 10.085,10.086c5.561,0 10.086,-4.525 10.086,-10.086c0,-5.561 -4.525,-10.085 -10.086,-10.085" style="fill:#2b3a49;fill-rule:nonzero;"/><path d="M69.585,64.545c-4.455,0 -8.068,-3.613 -8.068,-8.069c0,-4.455 3.613,-8.068 8.068,-8.068c4.457,0 8.068,3.613 8.068,8.068c0,4.456 -3.611,8.069 -8.068,8.069m0,-18.154c-5.561,0 -10.085,4.524 -10.085,10.085c0,5.561 4.524,10.086 10.085,10.086c5.561,0 10.085,-4.525 10.085,-10.086c0,-5.561 -4.524,-10.085 -10.085,-10.085" style="fill:#2b3a49;fill-rule:nonzero;"/><ellipse cx="69.585" cy="56.476" rx="8.068" ry="8.068" style="fill:#6dbec4;"/><ellipse cx="37.313" cy="56.476" rx="8.068" ry="8.068" style="fill:#6dbec4;"/><path d="M37.313,66.562c-5.56,0 -10.085,-4.525 -10.085,-10.086c0,-5.56 4.525,-10.085 10.085,-10.085c5.561,0 10.086,4.525 10.086,10.085c0,5.561 -4.525,10.086 -10.086,10.086m11.411,-14.12c-1.662,-4.7 -6.142,-8.068 -11.411,-8.068c-1.098,0 -2.16,0.149 -3.172,0.423c-5.145,1.395 -8.93,6.094 -8.93,11.679c0,6.685 5.418,12.103 12.102,12.103c5.269,0 9.749,-3.369 11.411,-8.068c0.447,-1.262 0.692,-2.62 0.692,-4.035c0,-1.414 -0.245,-2.771 -0.692,-4.034" style="fill:#242c3c;fill-rule:nonzero;"/><path d="M69.585,66.562c-5.561,0 -10.085,-4.525 -10.085,-10.086c0,-5.56 4.524,-10.085 10.085,-10.085c5.561,0 10.085,4.525 10.085,10.085c0,5.561 -4.524,10.086 -10.085,10.086m3.173,-21.765c-1.011,-0.274 -2.074,-0.423 -3.173,-0.423c-5.267,0 -9.749,3.368 -11.409,8.068c-0.447,1.263 -0.693,2.62 -0.693,4.034c0,1.415 0.246,2.773 0.693,4.035c1.66,4.699 6.142,8.068 11.409,8.068c6.684,0 12.103,-5.418 12.103,-12.103c0,-5.585 -3.786,-10.284 -8.93,-11.679" style="fill:#242c3c;fill-rule:nonzero;"/><g><g opacity="0.399994"><path d="M37.313,54.291c0,-1.67 -1.353,-3.025 -3.025,-3.025c-1.671,0 -3.025,1.355 -3.025,3.025c0,1.672 1.354,3.027 3.025,3.027c1.672,0 3.025,-1.355 3.025,-3.027" style="fill:#fff;fill-rule:nonzero;"/></g></g><g><g opacity="0.399994"><path d="M69.585,54.291c0,-1.67 -1.353,-3.025 -3.025,-3.025c-1.671,0 -3.025,1.355 -3.025,3.025c0,1.672 1.354,3.027 3.025,3.027c1.672,0 3.025,-1.355 3.025,-3.027" style="fill:#fff;fill-rule:nonzero;"/></g></g><path d="M49.891,40.341l-2.055,-2.054c0.538,0.591 0.963,1.297 1.234,2.054l0.821,0Z" style="fill:#5d9ea6;fill-rule:nonzero;"/><path d="M67.727,38.002l-0.098,-0.098l-0.007,0l0.003,0.003c0.035,0.031 0.069,0.063 0.102,0.095" style="fill:#5d9ea6;fill-rule:nonzero;"/><path d="M72.758,44.797c1.101,0.299 2.138,0.75 3.09,1.327l-7.918,-7.92c0.814,0.862 1.38,1.959 1.578,3.182c1.391,0.789 2.528,1.979 3.25,3.411" style="fill:#5d9ea6;fill-rule:nonzero;"/><path d="M51.475,42.394c0.32,0.307 0.708,0.501 1.141,0.633c0.264,0.082 0.544,0.087 0.834,0.087l0.001,0l-1.351,-1.348l-1.429,-1.426l0,0.71l0.089,0.124c0.144,0.47 0.37,0.888 0.715,1.22" style="fill:#5d9ea6;fill-rule:nonzero;"/><path d="M86.202,56.476l-6.257,-6.256c1.105,1.826 1.743,3.966 1.743,6.256c0,4.07 -2.01,7.668 -5.091,9.862c-0.139,0.099 -0.279,0.194 -0.422,0.287c-1.897,1.234 -4.159,1.954 -6.59,1.954c-3.34,0 -6.364,-1.356 -8.554,-3.547c-1.263,-1.263 -2.248,-2.757 -2.855,-4.522l-7.577,0l-1.875,0c-1.661,4.792 -6.142,8.069 -11.41,8.069c-1.65,0 -3.224,-0.332 -4.658,-0.931c-1.452,-0.605 -2.759,-1.486 -3.859,-2.575l-0.002,-0.001l3.167,3.165l12.932,12.933l21.763,21.763c11.001,-3.091 20.536,-9.682 27.332,-18.493c0.104,-0.134 0.206,-0.267 0.308,-0.402c2.866,-3.791 5.23,-7.981 6.989,-12.475l-15.084,-15.087Z" style="fill:#5d9ea6;fill-rule:nonzero;"/></g></svg>