<?xml version="1.0" encoding="UTF-8" standalone="no"?><!DOCTYPE svg PUBLIC "-//W3C//DTD SVG 1.1//EN" "http://www.w3.org/Graphics/SVG/1.1/DTD/svg11.dtd"><svg width="100%" height="100%" viewBox="0 0 105 105" version="1.1" xmlns="http://www.w3.org/2000/svg" xmlns:xlink="http://www.w3.org/1999/xlink" xml:space="preserve" xmlns:serif="http://www.serif.com/" style="fill-rule:evenodd;clip-rule:evenodd;stroke-linejoin:round;stroke-miterlimit:1.41421;"><g><path d="M0,52.443c0,28.962 23.48,52.442 52.444,52.442c28.961,0 52.441,-23.48 52.441,-52.442c0,-28.963 -23.48,-52.443 -52.441,-52.443c-28.964,0 -52.444,23.48 -52.444,52.443" style="fill:#6dbec4;fill-rule:nonzero;"/><path d="M40.879,45.157l18.712,18.712c-1.243,2.937 -0.67,6.461 1.723,8.855c2.112,2.11 5.101,2.805 7.793,2.087l-4.939,-4.939l5.704,-5.705l4.94,4.939c0.719,-2.692 0.023,-5.681 -2.088,-7.792c-2.394,-2.395 -5.917,-2.969 -8.853,-1.724l-18.713,-18.712c1.243,-2.938 0.671,-6.461 -1.724,-8.855c-2.111,-2.111 -5.1,-2.805 -7.791,-2.087l4.939,4.94l-5.705,5.705l-4.939,-4.94c-0.719,2.692 -0.026,5.681 2.085,7.792c2.395,2.395 5.918,2.968 8.856,1.724" style="fill:#fff;fill-rule:nonzero;"/><path d="M61.314,62.827c-0.387,0 -0.774,-0.149 -1.07,-0.443l-17.879,-17.881c-0.592,-0.591 -0.592,-1.548 0,-2.14c0.591,-0.589 1.548,-0.589 2.139,0l17.88,17.881c0.59,0.591 0.59,1.548 0,2.14c-0.296,0.294 -0.683,0.443 -1.07,0.443" style="fill:#d8d8da;fill-rule:nonzero;"/><path d="M65.19,36.447l-23.775,23.29l1.867,1.867l23.533,-23.534l-1.625,-1.623Z" style="fill:#2b3a49;fill-rule:nonzero;"/><path d="M68.438,39.695l-1.623,-1.625l-23.534,23.533l1.867,1.867l23.29,-23.775Z" style="fill:#242c3c;fill-rule:nonzero;"/><path d="M59.861,27.908l1.516,1.516l-5.704,5.705l-1.516,-1.516l5.704,-5.705Z" style="fill:#fff;"/><path d="M65.566,33.613l5.706,5.706l-5.705,5.705l-5.706,-5.706l5.705,-5.705Z" style="fill:#242c3c;"/><path d="M62.046,32.945c-1.158,-1.157 -1.457,-2.733 -0.669,-3.521l-5.705,5.705c0.788,-0.788 2.364,-0.487 3.521,0.668c1.157,1.157 1.457,2.734 0.668,3.522l5.705,-5.706c-0.787,0.789 -2.363,0.489 -3.52,-0.668" style="fill:#242c3c;fill-rule:nonzero;"/><path d="M71.272,39.319l-5.706,5.705c4.368,-4.368 6.954,6.952 6.954,6.952l1.871,-0.623c1.427,-7.488 -3.119,-12.034 -3.119,-12.034" style="fill:#242c3c;fill-rule:nonzero;"/><path d="M61.288,39.319l4.278,4.279l4.279,-4.279l-8.557,0Z" style="fill:#d8d8da;fill-rule:nonzero;"/><path d="M65.566,35.04l-4.278,4.279l8.557,0l-4.279,-4.279Z" style="fill:#fff;fill-rule:nonzero;"/><path d="M49.461,55.425c-1.576,-1.575 -4.131,-1.575 -5.706,0l-11.979,11.98c-1.575,1.575 -1.575,4.129 0,5.705c1.575,1.574 4.129,1.576 5.705,0l11.98,-11.98c1.574,-1.575 1.574,-4.13 0,-5.705" style="fill:#fff;fill-rule:nonzero;"/><path d="M32.345,66.834l5.705,5.706l-0.712,0.713l-5.706,-5.706l0.713,-0.713Z" style="fill:#abadb3;"/><path d="M33.772,65.408l5.705,5.705l-0.713,0.714l-5.706,-5.705l0.714,-0.714Z" style="fill:#abadb3;"/><path d="M35.198,63.982l5.705,5.705l-0.714,0.713l-5.705,-5.704l0.714,-0.714Z" style="fill:#abadb3;"/><path d="M36.625,62.555l5.705,5.706l-0.714,0.714l-5.705,-5.706l0.714,-0.714Z" style="fill:#abadb3;"/><path d="M38.05,61.13l5.706,5.704l-0.713,0.714l-5.706,-5.705l0.713,-0.713Z" style="fill:#abadb3;"/><path d="M39.477,59.703l5.705,5.706l-0.713,0.713l-5.705,-5.706l0.713,-0.713Z" style="fill:#abadb3;"/><path d="M40.903,58.277l5.706,5.705l-0.714,0.714l-5.706,-5.705l0.714,-0.714Z" style="fill:#abadb3;"/><path d="M42.329,56.851l5.705,5.706l-0.713,0.713l-5.705,-5.706l0.713,-0.713Z" style="fill:#abadb3;"/><path d="M43.756,55.424l5.705,5.706l-0.714,0.713l-5.705,-5.706l0.714,-0.713Z" style="fill:#abadb3;"/><path d="M45.158,40.878l7.674,7.675l3.603,-3.53l-13.001,-13c2.395,2.394 2.967,5.917 1.724,8.855" style="fill:#5d9ea6;fill-rule:nonzero;"/><path d="M68.42,36.465l-8.558,-8.556l1.515,1.515c-0.788,0.789 -0.489,2.364 0.669,3.522c1.156,1.156 2.733,1.456 3.521,0.668l2.852,2.852l2.852,2.852c0,0 4.548,4.546 3.121,12.034l-1.873,0.625c0,0 -2.584,-11.322 -6.952,-6.954l-1.187,-1.186l-4.518,4.614l-3.529,3.602l7.537,7.537c2.937,-1.244 6.461,-0.67 8.855,1.724c2.111,2.112 2.805,5.1 2.086,7.792l-4.939,-4.939l-5.705,5.704l4.94,4.94c-2.692,0.719 -5.682,0.023 -7.793,-2.088c-2.394,-2.394 -2.966,-5.918 -1.722,-8.853l-7.494,-7.495l-1.476,1.507c0.113,1.16 -0.273,2.36 -1.162,3.248l-0.713,0.699l-0.714,0.699l-0.712,0.756l-0.712,0.706l0,-0.004l-0.714,0.712l0,-0.001l-2.14,2.138l-0.713,0.713l-0.712,0.713l-0.714,0.714l0,-0.001l-0.713,0.713l-0.714,0.706l-0.713,0.707l0.001,0l-0.714,0.72l-0.713,0.716l-0.713,0.715l-0.007,-0.006c-1.583,1.433 -4.028,1.391 -5.553,-0.137l30.793,30.795c13.173,-2.577 24.579,-10.084 32.219,-20.525c2.981,-4.074 5.387,-8.593 7.102,-13.44l-33.471,-33.473Z" style="fill:#5d9ea6;fill-rule:nonzero;"/></g></svg>