<?xml version="1.0" encoding="UTF-8" standalone="no"?><!DOCTYPE svg PUBLIC "-//W3C//DTD SVG 1.1//EN" "http://www.w3.org/Graphics/SVG/1.1/DTD/svg11.dtd"><svg width="100%" height="100%" viewBox="0 0 105 105" version="1.1" xmlns="http://www.w3.org/2000/svg" xmlns:xlink="http://www.w3.org/1999/xlink" xml:space="preserve" xmlns:serif="http://www.serif.com/" style="fill-rule:evenodd;clip-rule:evenodd;stroke-linejoin:round;stroke-miterlimit:1.41421;"><g><path d="M104.883,52.442c0,28.963 -23.478,52.443 -52.442,52.443c-28.963,0 -52.441,-23.48 -52.441,-52.443c0,-28.963 23.478,-52.442 52.441,-52.442c28.964,0 52.442,23.479 52.442,52.442" style="fill:#495057;fill-rule:nonzero;"/><path d="M72.003,31.973c-1.176,-1.17 -2.793,-1.901 -4.587,-1.901c-0.349,0 -0.691,0.035 -1.027,0.088l-0.009,-0.008l-1.596,-1.59c-0.014,-0.013 -0.028,-0.026 -0.034,-0.041l-0.03,-0.029c-0.328,-0.419 -0.705,-0.797 -1.125,-1.126l-0.009,-0.009l-0.021,-0.013c-0.13,-0.099 -0.251,-0.187 -0.374,-0.269c-0.021,-0.014 -0.041,-0.027 -0.061,-0.04c-0.123,-0.08 -0.248,-0.156 -0.377,-0.227c-0.025,-0.015 -0.051,-0.029 -0.076,-0.043c-0.124,-0.068 -0.25,-0.13 -0.379,-0.188c-0.032,-0.015 -0.065,-0.031 -0.098,-0.046c-0.122,-0.053 -0.246,-0.102 -0.371,-0.148c-0.041,-0.014 -0.082,-0.031 -0.123,-0.046c-0.119,-0.041 -0.241,-0.076 -0.363,-0.11c-0.048,-0.014 -0.097,-0.03 -0.147,-0.042c-0.118,-0.03 -0.239,-0.055 -0.36,-0.077c-0.055,-0.011 -0.107,-0.025 -0.16,-0.034c-0.126,-0.019 -0.255,-0.034 -0.381,-0.049c-0.051,-0.005 -0.101,-0.012 -0.153,-0.017c-0.178,-0.015 -0.359,-0.024 -0.542,-0.024c-3.159,0 -5.798,2.269 -6.375,5.263l-3.294,-3.293c-0.047,-0.048 -0.094,-0.095 -0.141,-0.142c-0.976,-0.947 -2.248,-1.591 -3.662,-1.773c-0.278,-0.034 -0.562,-0.055 -0.846,-0.055c-2.816,0 -5.217,1.801 -6.117,4.312c-0.548,-0.151 -1.116,-0.224 -1.698,-0.224c-3.579,0 -6.489,2.909 -6.489,6.481c0,0.217 0.013,0.428 0.032,0.637c-0.259,0.043 -0.51,0.108 -0.758,0.181c-0.064,0.02 -0.127,0.039 -0.192,0.059c-0.241,0.081 -0.478,0.17 -0.705,0.276c-0.021,0.01 -0.039,0.02 -0.058,0.03c-0.224,0.108 -0.439,0.229 -0.647,0.36c-0.035,0.023 -0.07,0.043 -0.104,0.066c-0.4,0.263 -0.771,0.567 -1.104,0.91c-0.043,0.045 -0.084,0.089 -0.124,0.134c-0.104,0.113 -0.201,0.227 -0.297,0.346c-0.043,0.055 -0.089,0.11 -0.13,0.167c-0.103,0.136 -0.197,0.277 -0.287,0.421c-0.024,0.036 -0.048,0.069 -0.071,0.107c-0.114,0.187 -0.218,0.382 -0.312,0.582c0,0 -0.005,0.01 -0.008,0.015c-0.01,0.024 -0.018,0.049 -0.029,0.072c-0.074,0.162 -0.141,0.327 -0.201,0.497c-0.024,0.068 -0.045,0.137 -0.069,0.207c-0.043,0.137 -0.082,0.276 -0.118,0.417c-0.018,0.075 -0.035,0.151 -0.052,0.229c-0.031,0.147 -0.054,0.296 -0.075,0.447c-0.009,0.069 -0.021,0.135 -0.027,0.204c-0.023,0.221 -0.037,0.442 -0.037,0.668c0,1.231 0.345,2.422 0.988,3.444c-1.754,1.164 -2.91,3.154 -2.91,5.413c0,2.044 0.954,3.871 2.435,5.055c-0.568,0.98 -0.88,2.111 -0.88,3.261c0,0.201 0.01,0.398 0.028,0.595c0.008,0.083 0.023,0.163 0.034,0.246c0.015,0.11 0.026,0.222 0.046,0.328c0.02,0.108 0.047,0.213 0.073,0.319c0.017,0.08 0.033,0.159 0.055,0.239c0.033,0.117 0.072,0.231 0.112,0.346c0.021,0.065 0.04,0.128 0.062,0.19c0.046,0.12 0.098,0.236 0.148,0.35c0.024,0.056 0.046,0.113 0.072,0.167c0.054,0.112 0.113,0.22 0.172,0.329c0.031,0.057 0.061,0.114 0.093,0.171c0.056,0.092 0.117,0.184 0.176,0.274c0.046,0.07 0.089,0.14 0.138,0.207c0.049,0.068 0.1,0.134 0.152,0.2c0.047,0.062 0.092,0.127 0.141,0.188l0.04,0.038c0.228,0.27 0.478,0.518 0.746,0.747l0.021,0.02l3.241,3.248l0.008,0.007c0.173,1.329 0.744,2.533 1.596,3.485c0.006,0.006 0.02,0.02 0.026,0.034l0.441,0.439c0.012,0.006 0.026,0.02 0.033,0.027l30.725,30.727c19.981,-4.34 35.708,-20.061 40.055,-40.04l-31.669,-31.666Z" style="fill:#343b43;fill-rule:nonzero;"/><path d="M45.281,26.978c3.036,0 5.494,2.455 5.494,5.495l0,39.933c0,2.515 -1.678,4.63 -3.98,5.279l-0.017,0c-0.162,0.044 -0.335,0.078 -0.523,0.12c-0.187,0.035 -0.392,0.061 -0.624,0.077c-0.111,0.017 -0.231,0.017 -0.35,0.017c-2.919,0 -5.195,-2.164 -5.46,-4.938l0,-0.009c-0.772,0.413 -1.67,0.66 -2.603,0.66c-3.031,0 -5.494,-2.455 -5.494,-5.494c0,-0.652 0.128,-1.301 0.332,-1.875c-0.11,0 -0.22,0.008 -0.332,0.008c-3.031,0 -5.486,-2.456 -5.486,-5.495c0,-1.343 0.478,-2.558 1.273,-3.516c-1.692,-0.934 -2.832,-2.731 -2.832,-4.801c0,-2.304 1.413,-4.272 3.423,-5.085c-0.931,-0.983 -1.504,-2.309 -1.504,-3.773c0,-3.03 2.464,-5.486 5.493,-5.486l0.095,0c-0.137,-0.479 -0.214,-1.012 -0.214,-1.541c0,-3.03 2.464,-5.485 5.493,-5.485c0.824,0 1.697,0.195 2.398,0.522c0.42,-2.62 2.688,-4.613 5.418,-4.613" style="fill:#fff;fill-rule:nonzero;"/><path d="M59.603,26.978c-3.04,0 -5.496,2.455 -5.496,5.495l0,39.933c0,2.515 1.677,4.63 3.98,5.279c0,0 0.007,0.009 0.017,0c0.163,0.044 0.335,0.078 0.522,0.12c0.187,0.035 0.393,0.061 0.624,0.077c0.112,0.017 0.231,0.017 0.353,0.017c2.916,0 5.193,-2.164 5.458,-4.938l0,-0.009c0.768,0.413 1.668,0.66 2.602,0.66c3.03,0 5.496,-2.455 5.496,-5.494c0,-0.652 -0.129,-1.301 -0.336,-1.875c0.113,0 0.225,0.008 0.336,0.008c3.029,0 5.487,-2.456 5.487,-5.495c0,-1.343 -0.483,-2.558 -1.277,-3.516c1.695,-0.934 2.831,-2.731 2.831,-4.801c0,-2.304 -1.41,-4.272 -3.423,-5.085c0.934,-0.983 1.506,-2.309 1.506,-3.773c0,-3.03 -2.465,-5.486 -5.493,-5.486l-0.094,0c0.137,-0.479 0.214,-1.012 0.214,-1.541c0,-3.03 -2.465,-5.485 -5.494,-5.485c-0.823,0 -1.697,0.195 -2.397,0.522c-0.42,-2.62 -2.688,-4.613 -5.416,-4.613" style="fill:#fff;fill-rule:nonzero;"/><path d="M45.282,78.903c-3.58,0 -6.49,-2.911 -6.49,-6.489c0,-3.58 2.91,-6.491 6.49,-6.491c0.552,0 1.002,0.448 1.002,1.001c0,0.549 -0.45,0.995 -1.002,0.995c-2.477,0 -4.492,2.016 -4.492,4.495c0,2.48 2.015,4.497 4.492,4.497c2.479,0 4.495,-2.017 4.495,-4.497l0,-39.943c0,-2.48 -2.016,-4.498 -4.495,-4.498c-2.477,0 -4.492,2.018 -4.492,4.498c0,2.478 2.015,4.494 4.492,4.494c0.552,0 1.002,0.447 1.002,0.995c0,0.553 -0.45,1.003 -1.002,1.003c-3.58,0 -6.49,-2.912 -6.49,-6.492c0,-3.579 2.91,-6.489 6.49,-6.489c3.581,0 6.493,2.91 6.493,6.489l0,39.943c0,3.578 -2.912,6.489 -6.493,6.489" style="fill:#d9d8d7;fill-rule:nonzero;"/><path d="M37.223,74.611c-3.58,0 -6.492,-2.913 -6.492,-6.492c0,-0.758 0.129,-1.505 0.387,-2.219c0.147,-0.397 0.525,-0.66 0.941,-0.66c0.115,0 0.229,0.019 0.339,0.059c0.249,0.089 0.451,0.271 0.564,0.514c0.114,0.243 0.125,0.515 0.032,0.768c-0.179,0.493 -0.269,1.011 -0.269,1.538c0,2.48 2.017,4.499 4.498,4.499c0.745,0 1.477,-0.185 2.121,-0.533c0.146,-0.079 0.311,-0.122 0.476,-0.122c0.364,0 0.701,0.199 0.879,0.521c0.26,0.489 0.079,1.095 -0.404,1.354c-0.941,0.506 -2.005,0.773 -3.072,0.773" style="fill:#d9d8d7;fill-rule:nonzero;"/><path d="M31.726,67.245c-3.577,0 -6.486,-2.911 -6.486,-6.489c0,-1.512 0.534,-2.988 1.506,-4.154c0.19,-0.227 0.468,-0.358 0.765,-0.358c0.233,0 0.461,0.085 0.639,0.236c0.202,0.166 0.331,0.409 0.353,0.676c0.024,0.265 -0.056,0.523 -0.227,0.725c-0.672,0.805 -1.045,1.826 -1.045,2.875c0,2.481 2.017,4.497 4.495,4.497l0.005,0c0.08,0 0.155,0 0.23,-0.01c2.401,-0.139 4.263,-2.106 4.263,-4.487c0,-0.548 0.447,-0.994 0.998,-0.994c0.549,0 0.995,0.446 0.995,0.994c0,3.429 -2.68,6.275 -6.099,6.477c-0.12,0.006 -0.259,0.012 -0.392,0.012" style="fill:#d9d8d7;fill-rule:nonzero;"/><path d="M45.381,61.755c-0.551,0 -0.999,-0.448 -0.999,-0.999c0,-1.701 -1.384,-3.083 -3.083,-3.083c-1.699,0 -3.082,1.382 -3.082,3.083c0,0.551 -0.447,0.999 -0.994,0.999c-0.551,0 -1,-0.448 -1,-0.999c0,-2.799 2.278,-5.079 5.076,-5.079c2.799,0 5.075,2.28 5.075,5.079c0,0.551 -0.446,0.999 -0.993,0.999" style="fill:#d9d8d7;fill-rule:nonzero;"/><path d="M30.17,58.928c-3.578,0 -6.487,-2.911 -6.487,-6.487c0,-3.58 2.909,-6.494 6.487,-6.494c3.58,0 6.493,2.914 6.493,6.494c0,0.549 -0.449,0.994 -1.001,0.994c-0.55,0 -0.997,-0.445 -0.997,-0.994c0,-2.479 -2.016,-4.496 -4.495,-4.496c-2.478,0 -4.494,2.017 -4.494,4.496c0,2.477 2.016,4.49 4.494,4.49c0.551,0 1.001,0.45 1.001,1c0,0.551 -0.45,0.997 -1.001,0.997" style="fill:#d9d8d7;fill-rule:nonzero;"/><path d="M28.102,48.35c-0.275,0 -0.532,-0.112 -0.723,-0.314c-1.146,-1.205 -1.776,-2.786 -1.776,-4.453c0,-3.579 2.913,-6.49 6.493,-6.49c0.048,0 0.105,0 0.156,0.002c3.091,0.051 5.718,2.119 6.102,4.814c0.227,1.602 1.272,3.218 3.094,3.218c0.55,0 0.995,0.45 0.995,1.002c0,0.549 -0.445,0.997 -0.995,0.997c-2.613,0 -4.65,-1.985 -5.066,-4.94c-0.274,-1.901 -2.354,-3.067 -4.207,-3.096l-0.089,-0.002c-2.468,0 -4.487,2.016 -4.487,4.495c0,1.155 0.436,2.25 1.229,3.086c0.377,0.395 0.361,1.027 -0.034,1.404c-0.199,0.181 -0.443,0.277 -0.692,0.277" style="fill:#d9d8d7;fill-rule:nonzero;"/><path d="M32.191,39.091c-0.441,0 -0.834,-0.297 -0.954,-0.722c-0.173,-0.585 -0.261,-1.195 -0.261,-1.812c0,-3.579 2.909,-6.489 6.488,-6.489c0.989,0 1.942,0.219 2.829,0.647c0.491,0.241 0.698,0.838 0.462,1.333c-0.167,0.347 -0.509,0.564 -0.895,0.564c-0.155,0 -0.303,-0.036 -0.441,-0.103c-0.612,-0.296 -1.27,-0.444 -1.955,-0.444c-1.199,0 -2.326,0.466 -3.175,1.317c-0.85,0.848 -1.317,1.975 -1.317,3.175c0,0.424 0.061,0.847 0.179,1.257c0.075,0.26 0.043,0.531 -0.088,0.767c-0.13,0.23 -0.34,0.397 -0.594,0.468c-0.068,0.026 -0.164,0.042 -0.278,0.042" style="fill:#d9d8d7;fill-rule:nonzero;"/><path d="M59.6,78.903c-3.581,0 -6.492,-2.911 -6.492,-6.489l0,-39.943c0,-3.579 2.911,-6.489 6.492,-6.489c3.579,0 6.491,2.91 6.491,6.489c0,3.58 -2.912,6.492 -6.491,6.492c-0.552,0 -1.003,-0.45 -1.003,-1.003c0,-0.548 0.451,-0.995 1.003,-0.995c2.477,0 4.492,-2.016 4.492,-4.494c0,-2.48 -2.015,-4.498 -4.492,-4.498c-2.479,0 -4.496,2.018 -4.496,4.498l0,39.943c0,2.48 2.017,4.497 4.496,4.497c2.477,0 4.492,-2.017 4.492,-4.497c0,-2.479 -2.015,-4.495 -4.492,-4.495c-0.552,0 -1.003,-0.446 -1.003,-0.995c0,-0.553 0.451,-1.001 1.003,-1.001c3.579,0 6.491,2.911 6.491,6.491c0,3.578 -2.912,6.489 -6.491,6.489" style="fill:#d9d8d7;fill-rule:nonzero;"/><path d="M67.658,74.611c-1.067,0 -2.131,-0.267 -3.071,-0.772c-0.483,-0.262 -0.665,-0.866 -0.404,-1.35c0.176,-0.326 0.512,-0.526 0.877,-0.526c0.167,0 0.332,0.043 0.478,0.122c0.643,0.348 1.375,0.533 2.12,0.533c2.481,0 4.498,-2.019 4.498,-4.499c0,-0.525 -0.089,-1.044 -0.268,-1.543c-0.091,-0.247 -0.08,-0.52 0.033,-0.762c0.112,-0.244 0.313,-0.426 0.564,-0.516c0.108,-0.039 0.222,-0.058 0.338,-0.058c0.415,0 0.793,0.263 0.94,0.656c0.257,0.711 0.387,1.457 0.387,2.223c0,3.579 -2.912,6.492 -6.492,6.492" style="fill:#d9d8d7;fill-rule:nonzero;"/><path d="M73.156,67.245c-0.134,0 -0.272,-0.006 -0.389,-0.011c-3.423,-0.203 -6.102,-3.049 -6.102,-6.478c0,-0.548 0.445,-0.994 0.994,-0.994c0.549,0 0.998,0.446 0.998,0.994c0,2.381 1.861,4.348 4.235,4.483c0.104,0.014 0.183,0.014 0.264,0.014c2.478,0 4.495,-2.016 4.495,-4.497c0,-1.047 -0.373,-2.068 -1.048,-2.875c-0.169,-0.203 -0.25,-0.461 -0.225,-0.726c0.025,-0.266 0.151,-0.509 0.358,-0.678c0.172,-0.148 0.399,-0.233 0.635,-0.233c0.296,0 0.575,0.131 0.764,0.358c0.973,1.169 1.508,2.644 1.508,4.154c0,3.578 -2.91,6.489 -6.487,6.489" style="fill:#d9d8d7;fill-rule:nonzero;"/><path d="M67.658,61.755c-0.547,0 -0.993,-0.448 -0.993,-0.999c0,-1.701 -1.383,-3.083 -3.082,-3.083c-1.701,0 -3.084,1.382 -3.084,3.083c0,0.551 -0.448,0.999 -0.998,0.999c-0.547,0 -0.994,-0.448 -0.994,-0.999c0,-2.799 2.276,-5.079 5.076,-5.079c2.797,0 5.074,2.28 5.074,5.079c0,0.551 -0.449,0.999 -0.999,0.999" style="fill:#d9d8d7;fill-rule:nonzero;"/><path d="M74.712,58.928c-0.55,0 -0.999,-0.446 -0.999,-0.997c0,-0.55 0.449,-1 0.999,-1c2.477,0 4.493,-2.013 4.493,-4.49c0,-2.479 -2.016,-4.496 -4.493,-4.496c-2.479,0 -4.496,2.017 -4.496,4.496c0,0.549 -0.447,0.994 -0.997,0.994c-0.551,0 -1.001,-0.445 -1.001,-0.994c0,-3.58 2.913,-6.494 6.494,-6.494c3.578,0 6.488,2.914 6.488,6.494c0,3.576 -2.91,6.487 -6.488,6.487" style="fill:#d9d8d7;fill-rule:nonzero;"/><path d="M76.779,48.35c-0.25,0 -0.493,-0.096 -0.685,-0.27c-0.401,-0.384 -0.417,-1.016 -0.04,-1.411c0.792,-0.836 1.228,-1.932 1.228,-3.086c0,-2.479 -2.016,-4.495 -4.497,-4.495l-0.074,0.002c-1.858,0.029 -3.938,1.195 -4.212,3.097c-0.415,2.954 -2.451,4.939 -5.066,4.939c-0.549,0 -0.993,-0.448 -0.993,-0.997c0,-0.552 0.444,-1.002 0.993,-1.002c1.822,0 2.867,-1.616 3.095,-3.218c0.382,-2.695 3.011,-4.763 6.114,-4.814c0.038,-0.002 0.097,-0.002 0.143,-0.002c3.58,0 6.494,2.911 6.494,6.49c0,1.667 -0.631,3.248 -1.777,4.453c-0.188,0.202 -0.447,0.314 -0.723,0.314" style="fill:#d9d8d7;fill-rule:nonzero;"/><path d="M72.691,39.091c-0.114,0 -0.209,-0.016 -0.302,-0.05c-0.231,-0.063 -0.443,-0.231 -0.572,-0.463c-0.131,-0.235 -0.161,-0.505 -0.087,-0.764c0.119,-0.41 0.18,-0.834 0.18,-1.257c0,-2.478 -2.015,-4.492 -4.493,-4.492c-0.685,0 -1.343,0.148 -1.956,0.445c-0.137,0.066 -0.285,0.102 -0.439,0.102c-0.386,0 -0.728,-0.217 -0.895,-0.564c-0.234,-0.495 -0.029,-1.092 0.46,-1.332c0.888,-0.429 1.839,-0.648 2.83,-0.648c3.579,0 6.488,2.91 6.488,6.489c0,0.617 -0.087,1.226 -0.26,1.814c-0.122,0.423 -0.514,0.72 -0.954,0.72" style="fill:#d9d8d7;fill-rule:nonzero;"/></g></svg>