<?xml version="1.0" encoding="UTF-8" standalone="no"?><!DOCTYPE svg PUBLIC "-//W3C//DTD SVG 1.1//EN" "http://www.w3.org/Graphics/SVG/1.1/DTD/svg11.dtd"><svg width="100%" height="100%" viewBox="0 0 105 105" version="1.1" xmlns="http://www.w3.org/2000/svg" xmlns:xlink="http://www.w3.org/1999/xlink" xml:space="preserve" xmlns:serif="http://www.serif.com/" style="fill-rule:evenodd;clip-rule:evenodd;stroke-linejoin:round;stroke-miterlimit:1.41421;"><g><path d="M52.442,104.885c-28.916,0 -52.442,-23.525 -52.442,-52.442c0,-28.918 23.526,-52.443 52.442,-52.443c28.915,0 52.442,23.525 52.442,52.443c0,28.917 -23.527,52.442 -52.442,52.442" style="fill:#fff;fill-rule:nonzero;"/><path d="M97.95,52.444c0,25.132 -20.376,45.508 -45.508,45.508c-25.135,0 -45.508,-20.376 -45.508,-45.508c0,-25.133 20.373,-45.51 45.508,-45.51c25.132,0 45.508,20.377 45.508,45.51" style="fill:#79e2e2;fill-rule:nonzero;"/><path d="M78.504,46.34c0.008,-20.18 -12.818,-30.09 -25.423,-29.744c-12.606,-0.346 -25.434,9.564 -25.426,29.744c-0.252,11.917 5.204,21.49 5.204,21.49c0.684,0.443 1.802,0.827 3.227,1.155l-1.44,-6.043l4.194,6.549c7.556,1.125 19.766,1.163 27.646,0.119c1.86,-1.851 4.121,-5.127 4.121,-5.127l-1.446,4.694c1.864,-0.364 3.316,-0.812 4.139,-1.347c0,0 5.457,-9.573 5.204,-21.49" style="fill:#1a1a1a;fill-rule:nonzero;"/><path d="M52.442,97.952c11.764,0 22.482,-4.465 30.561,-11.791c-1.133,-1.096 -2.613,-1.88 -4.548,-2.091c-5.185,-0.564 -18.738,-1.84 -19.664,-16.24c-2.009,0.716 -4.139,1.102 -6.35,1.102c-2.21,0 -4.343,-0.386 -6.351,-1.102c-0.924,14.4 -14.477,15.676 -19.664,16.24c-1.933,0.211 -3.414,0.995 -4.545,2.091c8.075,7.326 18.797,11.791 30.561,11.791" style="fill:#063c4c;fill-rule:nonzero;"/><path d="M67.196,81.224c-4.223,-2.173 -7.937,-6.097 -8.406,-13.395c-2.005,0.717 -4.136,1.103 -6.349,1.103c-2.21,0 -4.343,-0.386 -6.35,-1.103c-0.469,7.298 -4.181,11.223 -8.402,13.395c4.301,2.863 11.154,3.766 14.631,3.766c0.041,0 0.08,-0.005 0.121,-0.006c0.043,0.001 0.081,0.006 0.121,0.006c3.48,0 10.33,-0.903 14.634,-3.766" style="fill:#534741;fill-rule:nonzero;"/><path d="M73.928,43.18c0,13.697 -9.62,26.421 -21.487,26.421c-11.866,0 -21.485,-12.724 -21.485,-26.421c0,-13.699 9.619,-24.804 21.485,-24.804c11.867,0 21.487,11.105 21.487,24.804" style="fill:#534741;fill-rule:nonzero;"/><path d="M52.216,17.744c-12.262,-0.544 -22.222,11.485 -22.222,25.654c0,1.349 0.091,2.675 0.266,3.966c2.057,0.961 5.284,0.863 8.919,-0.285c1.15,-1.672 2.471,-3.764 3.764,-6.194c0,0 -0.387,2.737 -1.517,5.371c5.74,-2.396 12.067,-7.23 16.293,-14.496c4.617,6.916 13.12,13.134 16.914,15.454c0.187,-1.312 0.344,-2.661 0.288,-4.035c-0.632,-15.641 -8.491,-24.803 -22.705,-25.435" style="fill:#1a1a1a;fill-rule:nonzero;"/></g></svg>