<?xml version="1.0" encoding="UTF-8" standalone="no"?><!DOCTYPE svg PUBLIC "-//W3C//DTD SVG 1.1//EN" "http://www.w3.org/Graphics/SVG/1.1/DTD/svg11.dtd"><svg width="100%" height="100%" viewBox="0 0 105 105" version="1.1" xmlns="http://www.w3.org/2000/svg" xmlns:xlink="http://www.w3.org/1999/xlink" xml:space="preserve" xmlns:serif="http://www.serif.com/" style="fill-rule:evenodd;clip-rule:evenodd;stroke-linejoin:round;stroke-miterlimit:1.41421;"><g><path d="M52.359,104.72c-28.869,0 -52.359,-23.487 -52.359,-52.358c0,-28.874 23.49,-52.362 52.359,-52.362c28.87,0 52.36,23.488 52.36,52.362c0,28.871 -23.49,52.358 -52.36,52.358" style="fill:#fff;fill-rule:nonzero;"/><path d="M97.795,52.362c0,25.091 -20.343,45.436 -45.436,45.436c-25.092,0 -45.435,-20.345 -45.435,-45.436c0,-25.095 20.343,-45.438 45.435,-45.438c25.093,0 45.436,20.343 45.436,45.438" style="fill:#063c4c;fill-rule:nonzero;"/><path d="M75.301,76.992l0,4.113c1.022,-0.221 2.041,-0.456 3.059,-0.709l-1.843,-33.264c-3.079,-22.408 -13.356,-29.57 -24.025,-29.57c-0.046,0 -0.091,0.005 -0.134,0.005c-0.046,0 -0.09,-0.005 -0.135,-0.005c-10.672,0 -20.943,7.162 -24.026,29.57c-1.435,10.445 -1.793,31.555 -1.839,33.264c0.208,0.053 0.416,0.096 0.626,0.146l2.04,-4.184l0,4.656c14.713,3.253 29.803,3.399 44.548,0.44l1.729,-4.462Z" style="fill:#ffd215;fill-rule:nonzero;"/><path d="M47.589,97.545l9.541,0c9.696,-1.011 18.479,-5.075 25.384,-11.21c-1.145,-1.268 -2.694,-2.194 -4.796,-2.422c-5.056,-0.552 -18.269,-1.795 -19.171,-15.832c-1.957,0.698 -4.034,1.073 -6.188,1.073c-2.156,0 -4.235,-0.375 -6.19,-1.073c-0.901,14.037 -14.114,15.28 -19.169,15.832c-2.102,0.228 -3.652,1.154 -4.797,2.421c6.906,6.135 15.691,10.2 25.386,11.211" style="fill:#ff5b40;fill-rule:nonzero;"/><path d="M66.739,81.136c-4.114,-2.116 -7.734,-5.94 -8.191,-13.055c-1.956,0.699 -4.035,1.074 -6.19,1.074c-2.155,0 -4.231,-0.375 -6.189,-1.074c-0.458,7.115 -4.076,10.939 -8.193,13.055c4.195,2.79 10.875,3.672 14.262,3.672c0.04,0 0.079,-0.003 0.12,-0.006c0.04,0.003 0.077,0.006 0.118,0.006c3.394,0 10.069,-0.882 14.263,-3.672" style="fill:#fff;fill-rule:nonzero;"/><path d="M73.301,44.052c0,13.354 -9.376,25.755 -20.943,25.755c-11.568,0 -20.945,-12.401 -20.945,-25.755c0,-13.353 9.377,-24.178 20.945,-24.178c11.567,0 20.943,10.825 20.943,24.178" style="fill:#fff;fill-rule:nonzero;"/><path d="M52.137,19.258c-11.951,-0.531 -21.661,11.196 -21.661,25.008c0,1.313 0.089,2.605 0.259,3.865c2.005,0.938 5.153,0.841 8.693,-0.278c1.123,-1.629 2.409,-3.669 3.67,-6.036c0,0 -0.377,2.667 -1.479,5.234c5.597,-2.337 11.763,-7.048 15.884,-14.129c4.5,6.739 12.786,12.801 16.488,15.063c0.181,-1.28 0.333,-2.592 0.281,-3.933c-0.617,-15.247 -8.278,-24.178 -22.135,-24.794" style="fill:#ffd215;fill-rule:nonzero;"/></g></svg>