<?xml version="1.0" encoding="UTF-8" standalone="no"?><!DOCTYPE svg PUBLIC "-//W3C//DTD SVG 1.1//EN" "http://www.w3.org/Graphics/SVG/1.1/DTD/svg11.dtd"><svg width="100%" height="100%" viewBox="0 0 105 105" version="1.1" xmlns="http://www.w3.org/2000/svg" xmlns:xlink="http://www.w3.org/1999/xlink" xml:space="preserve" xmlns:serif="http://www.serif.com/" style="fill-rule:evenodd;clip-rule:evenodd;stroke-linejoin:round;stroke-miterlimit:1.41421;"><g><circle cx="52.443" cy="52.443" r="52.443" style="fill:#e36a5c;"/><path d="M76.643,76.851l-48.41,0c-0.556,0 -1.007,-0.453 -1.007,-1.009c0,-0.557 0.451,-1.009 1.007,-1.009l48.41,0c0.556,0 1.009,0.452 1.009,1.009c0,0.556 -0.453,1.009 -1.009,1.009" style="fill:#fff;fill-rule:nonzero;"/><rect x="51.429" y="67.775" width="2.017" height="8.068" style="fill:#fff;"/><path d="M56.473,75.842c0,2.228 -1.807,4.034 -4.035,4.034c-2.228,0 -4.034,-1.806 -4.034,-4.034c0,-2.228 1.806,-4.034 4.034,-4.034c2.228,0 4.035,1.806 4.035,4.034" style="fill:#d8d8da;fill-rule:nonzero;"/><path d="M75.214,43.788c0.057,-0.554 0.088,-1.115 0.088,-1.685c0,-8.912 -7.224,-16.136 -16.136,-16.136c-5.286,0 -9.979,2.541 -12.922,6.469c-1.497,-0.663 -3.153,-1.034 -4.895,-1.034c-6.683,0 -12.103,5.418 -12.103,12.102c0,0.127 0.006,0.254 0.009,0.379c-5.223,1.341 -9.085,6.081 -9.085,11.723c0,6.683 5.418,12.103 12.102,12.103l40.257,0l0,-0.003c0.027,0.001 0.054,0.003 0.084,0.003c6.683,0 12.1,-5.42 12.1,-12.103c0,-5.79 -4.066,-10.627 -9.499,-11.818" style="fill:#fff;fill-rule:nonzero;"/><path d="M75.302,35.419l-4.723,-4.723c2.918,2.919 4.723,6.953 4.723,11.406c0,0.57 -0.031,1.131 -0.088,1.687c5.433,1.189 9.5,6.028 9.5,11.818c0,6.683 -5.47,12.101 -12.154,12.101c-0.028,0 0.116,-0.002 -0.136,-0.003l0,0.117l-40.152,0c-3.326,0 -6.336,-1.398 -8.523,-3.568l3.511,3.507l7.126,7.12l14.15,0c0.365,-1.512 1.448,-2.575 2.962,-2.94l0,-4.119l2.016,0l0,4.119c1.261,0.365 2.461,1.428 2.826,2.94l20.302,0c0.557,0 1.009,0.452 1.009,1.009c0,0.557 -0.452,1.009 -1.009,1.009l-20.302,0c-0.45,1.765 -2.023,3.025 -3.902,3.025c-1.88,0 -3.453,-1.26 -3.902,-3.025l-12.133,0l-8.169,0c-0.279,0 -0.53,-0.138 -0.714,-0.32l28.223,28.21c2.576,-0.159 5.103,-0.51 7.564,-1.028c20.089,-4.234 35.936,-19.965 40.347,-39.986l-28.352,-28.356Z" style="fill:#ce6358;fill-rule:nonzero;"/><path d="M20.17,67.774l0.065,-0.065l-0.065,0l0,0.065Z" style="fill:#ce6358;fill-rule:nonzero;"/></g></svg>