<?xml version="1.0" encoding="UTF-8" standalone="no"?><!DOCTYPE svg PUBLIC "-//W3C//DTD SVG 1.1//EN" "http://www.w3.org/Graphics/SVG/1.1/DTD/svg11.dtd"><svg width="100%" height="100%" viewBox="0 0 105 106" version="1.1" xmlns="http://www.w3.org/2000/svg" xmlns:xlink="http://www.w3.org/1999/xlink" xml:space="preserve" xmlns:serif="http://www.serif.com/" style="fill-rule:evenodd;clip-rule:evenodd;stroke-linejoin:round;stroke-miterlimit:1.41421;"><rect id="Artboard1" x="0" y="0" width="104.885" height="105.885" style="fill:none;"/><clipPath id="_clip1"><rect x="0" y="0" width="104.885" height="105.885"/></clipPath><g clip-path="url(#_clip1)"><g><path d="M104.885,52.943c0,28.963 -23.479,52.442 -52.442,52.442c-28.964,0 -52.443,-23.479 -52.443,-52.442c0,-28.964 23.479,-52.443 52.443,-52.443c28.963,0 52.442,23.479 52.442,52.443" style="fill:#f2f2f2;fill-rule:nonzero;"/><path d="M52.441,84.919c11.551,-0.003 20.917,-9.364 20.917,-20.919c0,-6.121 -2.632,-11.62 -6.821,-15.448c-0.198,-0.172 -0.399,-0.342 -0.599,-0.52c-3.27,-2.978 -5.323,-7.267 -5.323,-12.04l0,-1.502l-8.174,0l-8.171,0l0,1.502c0,4.773 -2.055,9.062 -5.324,12.04c-0.199,0.178 -0.401,0.348 -0.6,0.52c-4.188,3.828 -6.82,9.327 -6.82,15.448c0,11.555 9.366,20.916 20.915,20.919" style="fill:#ffd55c;fill-rule:nonzero;"/><path d="M51.007,56.084l2.868,9.564l1.055,-3.51l5.216,0l0,1.028l-4.451,0l-1.819,6.058l-2.869,-9.567l-1.055,3.509l-5.214,0l0,-1.028l4.449,0l1.82,-6.054Z" style="fill:#fff;fill-rule:nonzero;"/><path d="M59.836,63.105l-5.669,-29.84l0.758,-0.144l5.669,29.84l-0.758,0.144Z" style="fill:#242d3c;"/><path d="M49.958,33.121l0.758,0.146l-5.672,29.837l-0.754,-0.145l5.668,-29.838Z" style="fill:#242d3c;fill-rule:nonzero;"/><path d="M43.198,62.652c0,-0.852 0.689,-1.54 1.54,-1.54c0.851,0 1.541,0.688 1.541,1.54c0,0.852 -0.69,1.54 -1.541,1.54c-0.851,0 -1.54,-0.688 -1.54,-1.54" style="fill:#242d3c;fill-rule:nonzero;"/><path d="M58.605,62.652c0,-0.852 0.69,-1.54 1.541,-1.54c0.851,0 1.54,0.688 1.54,1.54c0,0.852 -0.689,1.54 -1.54,1.54c-0.851,0 -1.541,-0.688 -1.541,-1.54" style="fill:#242d3c;fill-rule:nonzero;"/><path d="M61.574,23.646c0,-1.752 -0.667,-3.506 -2.005,-4.843c-1.338,-1.336 -3.092,-2.007 -4.845,-2.007l-4.565,0c-1.752,0 -3.506,0.671 -4.844,2.007c-1.338,1.337 -2.005,3.091 -2.005,4.843l0,7.991l18.264,0l0,-7.991Z" style="fill:#242d3c;fill-rule:nonzero;"/><rect x="41.883" y="31.637" width="21.119" height="2.854" style="fill:#131a26;"/><rect x="50.444" y="14.514" width="3.997" height="2.283" style="fill:#131a26;"/><rect x="51.728" y="0.5" width="1.427" height="14.014" style="fill:#242d3c;"/><path d="M38.034,43.441l-0.679,0.498l-1.83,-2.492l0.68,-0.499l1.829,2.493Z" style="fill:#242d3c;"/><path d="M34.07,46.89l-0.558,0.623l-2.303,-2.063l0.558,-0.623l2.303,2.063Z" style="fill:#242d3c;"/><path d="M30.913,51.09l-0.417,0.724l-2.682,-1.546l0.417,-0.724l2.682,1.546Z" style="fill:#242d3c;"/><path d="M28.698,55.843l-0.257,0.797l-2.942,-0.947l0.257,-0.797l2.942,0.947Z" style="fill:#242d3c;"/><path d="M27.518,60.955l-0.086,0.835l-3.072,-0.315l0.086,-0.835l3.072,0.315Z" style="fill:#242d3c;"/><path d="M27.519,67.039l-3.073,0.323l-0.087,-0.827l3.073,-0.322l0.087,0.826Z" style="fill:#242d3c;"/><path d="M28.695,72.153l-2.939,0.954l-0.255,-0.786l2.939,-0.954l0.255,0.786Z" style="fill:#242d3c;"/><path d="M30.91,76.913l-2.679,1.546l-0.415,-0.719l2.68,-1.546l0.414,0.719Z" style="fill:#242d3c;"/><path d="M34.065,81.107l-2.298,2.069l-0.554,-0.616l2.298,-2.069l0.554,0.616Z" style="fill:#242d3c;"/><path d="M38.022,84.553l-1.816,2.5l-0.668,-0.485l1.816,-2.501l0.668,0.486Z" style="fill:#242d3c;"/><path d="M42.614,87.104l-1.258,2.823l-0.761,-0.339l1.258,-2.823l0.761,0.339Z" style="fill:#242d3c;"/><path d="M47.631,88.645l-0.647,3.024l-0.812,-0.174l0.646,-3.024l0.813,0.174Z" style="fill:#242d3c;"/><rect x="52.028" y="89.104" width="0.827" height="3.089" style="fill:#242d3c;"/><path d="M58.712,91.496l-0.822,0.174l-0.64,-3.026l0.823,-0.174l0.639,3.026Z" style="fill:#242d3c;"/><path d="M64.3,89.581l-0.77,0.348l-1.271,-2.817l0.77,-0.348l1.271,2.817Z" style="fill:#242d3c;"/><path d="M69.354,86.567l-0.675,0.489l-1.817,-2.504l0.675,-0.489l1.817,2.504Z" style="fill:#242d3c;"/><path d="M73.673,82.561l-0.56,0.62l-2.295,-2.075l0.56,-0.619l2.295,2.074Z" style="fill:#242d3c;"/><path d="M77.067,77.74l-0.416,0.719l-2.678,-1.547l0.416,-0.72l2.678,1.548Z" style="fill:#242d3c;"/><path d="M79.382,72.315l-0.255,0.791l-2.941,-0.948l0.255,-0.791l2.941,0.948Z" style="fill:#242d3c;"/><path d="M80.525,66.534l-0.086,0.829l-3.074,-0.32l0.086,-0.828l3.074,0.319Z" style="fill:#242d3c;"/><path d="M80.526,61.467l-3.074,0.328l-0.088,-0.828l3.074,-0.327l0.088,0.827Z" style="fill:#242d3c;"/><path d="M79.382,55.685l-2.938,0.955l-0.257,-0.79l2.938,-0.955l0.257,0.79Z" style="fill:#242d3c;"/><path d="M77.067,50.265l-2.68,1.548l-0.416,-0.719l2.68,-1.548l0.416,0.719Z" style="fill:#242d3c;"/><path d="M73.672,45.442l-2.298,2.07l-0.554,-0.615l2.298,-2.07l0.554,0.615Z" style="fill:#242d3c;"/><path d="M69.354,41.437l-1.816,2.503l-0.675,-0.49l1.816,-2.502l0.675,0.489Z" style="fill:#242d3c;"/></g></g></svg>